<svg width="66" height="66" viewBox="0 0 66 66" fill="none" xmlns="http://www.w3.org/2000/svg">
<g clip-path="url(#clip0)">
<path d="M65 53.5344C65 50.4526 61.9232 48.2035 58.8506 49.0117C58.5334 52.3933 57.6175 54.7623 56.5417 56.7218C57.9135 58.1668 59.883 58.5079 61.612 57.9746C63.518 57.3867 65 55.7811 65 53.5344Z" fill="#FEDDC5" stroke="#0E3B5D" stroke-width="2"/>
<path d="M63.3438 53.5344C63.3438 50.8384 61.3997 48.5831 58.7923 48.0005C62.4601 47.1792 66 49.8631 66 53.5344C66 57.18 62.4893 59.8931 58.7928 59.0678C61.3997 58.4857 63.3438 56.2298 63.3438 53.5344Z" fill="#042A4F"/>
<path d="M6.63063 28.9132L6.63068 28.9131C8.93558 25.3455 12.3319 25.1586 14.1634 25.3546C15.4668 25.4947 16.5297 24.3478 16.3196 23.0688C16.3196 23.0688 16.3196 23.0688 16.3196 23.0687L15.3328 23.2308C14.7185 19.4895 13.504 9.01792 17.9784 3.52934L18.7535 4.1612C19.3473 3.43277 19.9013 3.0579 20.3656 2.90099C20.8099 2.75085 21.2312 2.77837 21.649 2.96896C22.546 3.37815 23.5424 4.61381 24.1954 6.79721C25.4783 11.0867 25.1795 18.2803 21.0388 26.2941L21.0386 26.2943C20.4969 27.3434 20.4524 28.5777 20.9109 29.6623L20.911 29.6623C21.5099 31.0786 22.7754 33.0689 25.3805 34.5228L6.63063 28.9132ZM6.63063 28.9132C5.01446 31.4144 3.3023 32.8283 2.17633 33.7581C1.96478 33.9328 1.77391 34.0904 1.60826 34.2349C1.34367 34.4658 1.18067 34.6303 1.08231 34.7602C1.02548 34.8352 1.00658 34.8775 1.00093 34.8936C1.0071 34.9292 1.06519 35.1661 1.63615 35.7371M6.63063 28.9132L1.63615 35.7371M20.7625 55.4468C20.7549 55.4593 20.7472 55.4719 20.7396 55.4846C20.3615 56.107 19.9578 56.7317 19.7333 56.9915L19.7333 56.9916C18.2031 58.7633 18.2234 60.4146 18.2426 61.9746C18.2447 62.1469 18.2468 62.3182 18.2468 62.4883C18.2468 62.9426 17.8783 63.3111 17.424 63.3111H10.5316C10.2704 63.3111 10.0845 63.0765 10.1261 62.8409C10.6068 60.1184 12.3907 58.6583 14.0817 57.2742C14.2009 57.1766 14.3197 57.0794 14.4375 56.9822C15.2569 56.3059 16.2103 55.4905 16.571 54.4283C16.9864 53.2053 16.5524 51.9889 15.4981 50.7329L20.7625 55.4468ZM20.7625 55.4468L21.3631 54.4246L21.3688 54.415L21.3746 54.4055C21.3753 54.4042 21.3769 54.4017 21.3789 54.3984C21.3816 54.3942 21.3851 54.3887 21.3891 54.3825C21.391 54.3796 21.3943 54.3747 21.398 54.3693C21.4024 54.3627 21.4075 54.3553 21.4114 54.3497C21.4256 54.3303 21.4834 54.2598 21.5298 54.2115C21.7056 54.1164 21.9637 54.121 22.2253 54.1995M20.7625 55.4468L22.2253 54.1995M22.2253 54.1995V53.9312H22.2258H22.9038L23.1512 54.5522C23.1516 54.5531 23.1521 54.5542 23.1527 54.5556C23.1571 54.5653 23.1668 54.5859 23.1823 54.6159C23.2133 54.6759 23.2677 54.773 23.3503 54.8952C23.5154 55.1396 23.7924 55.4827 24.2223 55.8319C25.0666 56.5178 26.5708 57.2848 29.1454 57.2848V58.2848V59.2848C27.3388 59.2848 26.1042 60.4604 25.5722 61.694C25.3013 62.3221 25.2674 62.8449 25.3377 63.1305C25.3536 63.195 25.3722 63.2369 25.3862 63.2615C25.3996 63.2852 25.4086 63.2928 25.4092 63.2934L25.411 63.2946C25.4113 63.2948 25.4121 63.2953 25.4135 63.2959C25.4151 63.2966 25.4172 63.2975 25.4202 63.2986C25.4312 63.3024 25.4626 63.3111 25.5229 63.3111H47.6616C48.7978 63.3111 49.8806 62.8312 50.6437 61.9891L50.6438 61.989C52.544 59.8922 55.4774 56.1876 56.4631 52.4926C57.222 49.6462 57.6903 45.9434 56.6647 42.3099C55.6514 38.72 53.1525 35.0942 47.7722 32.3883L47.7722 32.3883C42.9455 29.9605 38.7007 30.9528 35.0206 32.3867C34.2107 32.7023 33.4384 33.0352 32.6876 33.3587C32.5803 33.405 32.4734 33.4511 32.3668 33.4969C31.5257 33.8587 30.7019 34.2069 29.9252 34.4734C28.4251 34.9882 26.796 35.3128 25.3805 34.5228L22.2253 54.1995ZM1.63615 35.7371C1.63618 35.7372 1.6362 35.7372 1.63622 35.7372C4.22581 38.3268 7.5447 41.3059 12.6269 40.4951C13.893 40.293 14.8847 41.5579 14.3969 42.7378L1.63615 35.7371ZM14.3968 42.738C13.7051 44.4119 12.9228 47.6641 15.498 50.7328L14.3968 42.738Z" fill="#FFF4EB" stroke="#0E3B5D" stroke-width="2"/>
<path d="M26.1332 33.7764C25.0078 34.074 24.0299 34.1063 23.2117 33.6495C20.841 32.3267 19.7076 30.5301 19.1763 29.2728C18.8329 28.4606 18.8661 27.5371 19.271 26.7531C25.5234 14.6525 23.3351 4.15569 19.5887 2.1511C24.5989 -0.437598 29.5709 11.9596 21.9272 26.7531C21.5223 27.5371 21.4886 28.4606 21.8325 29.2728C22.8597 31.7029 24.9942 33.3006 26.1332 33.7764Z" fill="#0E3B5D"/>
<path d="M48.7286 62.6606C50.6415 60.5497 53.7212 56.6941 54.7731 52.7509C56.3401 46.8736 56.8023 37.1467 45.5653 31.495C43.7742 30.5941 42.0567 30.1344 40.4197 29.9788C42.8241 29.7593 45.4334 30.0926 48.2215 31.495C59.459 37.1467 58.9963 46.8736 57.4292 52.7509C56.3773 56.6936 53.2977 60.5497 51.3847 62.6606C50.432 63.712 49.08 64.3112 47.6616 64.3112H45.0054C46.4244 64.3112 47.7759 63.712 48.7286 62.6606Z" fill="#0E3B5D"/>
<path d="M22.2177 54.9456C22.8456 53.6052 23.3204 51.8272 23.3204 49.5104C23.3204 48.96 23.7661 48.5144 24.3165 48.5144C24.8663 48.5144 25.3125 48.96 25.3125 49.5104C25.3125 52.6465 24.537 54.9597 23.5974 56.6118C22.5611 55.7724 22.2258 54.931 22.2258 54.931C22.2242 54.9335 22.2217 54.9386 22.2177 54.9456Z" fill="#0E3B5D"/>
<path d="M18.4514 22.8195L18.4512 22.8199C18.0313 23.6889 17.52 23.9784 17.1457 24.0353C16.8983 24.0728 16.6018 24.0258 16.2927 23.8458C16.3513 23.6006 16.3639 23.3381 16.3196 23.0688L18.4514 22.8195ZM18.4514 22.8195C20.1811 19.2436 21.539 14.8329 21.2283 10.3965L18.4514 22.8195ZM21.2283 10.3964C21.0059 7.2255 20.0224 5.80721 19.275 5.16689C18.9444 4.88366 18.6291 4.72612 18.3897 4.63855C16.6257 7.11411 15.9112 10.6052 15.7462 14.0827C15.572 17.7557 16.018 21.2318 16.3196 23.0686L21.2283 10.3964Z" fill="#FEDDC5" stroke="#0E3B5D" stroke-width="2"/>
<path d="M15.8082 24.4962C16.1803 24.1437 16.4724 23.7167 16.696 23.255C20.6316 15.1163 20.3612 7.12759 17.3133 4.44624C17.5197 4.12801 17.7408 3.82135 17.9785 3.5293C17.9785 3.5293 21.7545 3.60533 22.2258 10.3261C22.5531 14.9994 21.1241 19.5907 19.3516 23.255C18.415 25.1926 16.7806 25.4001 15.6375 24.6201C15.7473 24.5481 15.8082 24.4962 15.8082 24.4962Z" fill="#0E3B5D"/>
<path d="M7.68658 38.2097C8.07985 37.827 8.70927 37.8346 9.09347 38.2279C9.47767 38.6211 9.47012 39.2521 9.07686 39.6363C9.0265 39.6851 8.30241 40.383 7.22534 40.9566C6.34012 40.6267 5.52589 40.1942 4.7731 39.7053C6.27466 39.5507 7.65738 38.2374 7.68658 38.2097Z" fill="#0E3B5D"/>
<path d="M8.54159 31.6444C8.54159 32.4249 9.17454 33.0578 9.95502 33.0578C10.736 33.0578 11.369 32.4249 11.369 31.6444C11.369 30.8634 10.736 30.2305 9.95502 30.2305C9.17454 30.2305 8.54159 30.8634 8.54159 31.6444Z" fill="#525468"/>
<path d="M29.1454 58.2849L34.7594 58.2481C34.9578 58.2441 38.0822 58.1409 38.0822 55.9137C38.0822 53.6609 28.4812 50.9976 35.2785 42.8831C35.6315 42.4616 36.2599 42.4062 36.6814 42.7592C37.1029 43.1127 37.1588 43.7406 36.8053 44.1626C31.0161 51.0737 40.0742 51.6633 40.0742 55.9137C40.0742 59.2884 36.6109 60.2195 34.7684 60.2406H29.5749C29.509 60.2406 29.444 60.2421 29.3796 60.2451C29.3796 60.2451 25.6252 60.1757 24.3376 63.2216C24.0501 61.4854 25.7949 58.2849 29.1454 58.2849Z" fill="#0E3B5D"/>
</g>
<defs>
<clipPath id="clip0">
<rect width="66" height="66" fill="white" transform="matrix(-1 0 0 1 66 0)"/>
</clipPath>
</defs>
</svg>
