<svg width="64" height="64" viewBox="0 0 64 64" fill="none" xmlns="http://www.w3.org/2000/svg">
<path d="M59.4991 31.7874C59.4785 29.1201 58.058 26.8034 55.9504 25.4909C56.5606 24.3949 56.9322 23.1496 56.9219 21.8071C56.896 18.4597 54.6797 15.3967 51.6441 14.3614C51.6402 14.3246 52.7334 11.0222 49.9874 8.31532C49.0364 7.38019 47.7864 6.74607 46.3962 6.56932C45.361 3.63469 42.5481 1.16769 39.262 1.19307C35.1196 1.22507 31.7911 4.98344 31.8231 9.12581C31.7911 4.98344 28.4049 1.27707 24.2625 1.30907C20.9764 1.33444 18.2019 3.84469 17.2122 6.79494C15.825 6.99319 14.585 7.64656 13.6486 8.59631C10.9867 11.3026 12.0854 14.6547 12.0855 14.6673C9.06624 15.7494 6.89762 18.8463 6.92349 22.1937C6.93387 23.5362 7.32474 24.7757 7.95187 25.8621C5.86474 27.2069 4.48024 29.5453 4.50087 32.2127C4.51524 34.0762 5.24174 36.2099 6.48862 37.5724C5.30137 38.9104 4.56612 40.6574 4.58112 42.5873C4.59899 44.9059 5.68987 46.9451 7.35412 48.3086C7.22224 48.8758 7.13424 49.4591 7.13899 50.0678C7.17099 54.2102 10.5572 57.9166 14.6996 57.8846C14.9834 57.8823 15.253 57.8278 15.5277 57.7944C16.9409 60.7786 19.9694 62.8441 23.488 62.8168C28.3204 62.7794 32.2045 58.4568 32.1672 53.6244C32.2046 58.4568 36.1551 62.7189 40.9875 62.6816C44.5061 62.6543 47.5024 60.5424 48.8692 57.5367C49.1445 57.5658 49.4149 57.6162 49.6986 57.6141C53.841 57.5821 57.1695 53.8237 57.1375 49.6813C57.1327 49.0726 57.0357 48.4908 56.8951 47.9257C58.5382 46.5367 59.5974 44.4809 59.5794 42.1623C59.5645 40.2323 58.8022 38.4969 57.5945 37.1776C58.8211 35.7946 59.5136 33.6491 59.4991 31.7874Z" fill="#FFF4EB"/>
<path d="M38.25 12.875C38.94 12.875 39.5 12.315 39.5 11.625C39.5 10.935 38.94 10.375 38.25 10.375C37.56 10.375 37 10.935 37 11.625C37 12.315 37.56 12.875 38.25 12.875Z" fill="#042A4F"/>
<path d="M25.75 12.875C26.44 12.875 27 12.315 27 11.625C27 10.935 26.44 10.375 25.75 10.375C25.06 10.375 24.5 10.935 24.5 11.625C24.5 12.315 25.06 12.875 25.75 12.875Z" fill="#042A4F"/>
<path d="M3.25 42.375C3.25 44.702 4.1935 46.9188 5.86237 48.5648C5.00437 53.7513 9.14062 59 14.5 59C14.5387 59 14.5769 58.9994 14.6143 58.9982C16.3911 62.0635 19.6894 64 23.25 64C26.961 64 30.277 61.7725 32 58.5633C33.723 61.7725 37.039 64 40.75 64C44.3106 64 47.6089 62.0635 49.3857 58.9982C49.4232 58.9994 49.4613 59 49.5 59C54.243 59 58.25 54.8213 58.25 49.875C58.25 49.4539 58.213 49.0208 58.1376 48.5648C59.8065 46.9188 60.75 44.7021 60.75 42.375C60.75 40.5805 60.1844 38.8339 59.1404 37.3602C60.2132 35.75 60.75 33.7409 60.75 32C60.75 29.3755 59.5841 26.9371 57.5835 25.2836C58.0262 24.2256 58.25 23.1252 58.25 22C58.25 18.5181 56.218 15.2746 53.1969 13.76C53.6553 9.95825 51.178 6.4735 47.5069 5.58462C46.07 2.263 42.8719 0 39.5 0C36.3613 0 33.5461 1.83075 32 4.502C30.4538 1.83075 27.6386 0 24.5 0C21.1279 0 17.9298 2.263 16.4931 5.58475C12.8 6.47925 10.346 9.98137 10.8031 13.76C7.78213 15.2745 5.75 18.5181 5.75 22C5.75 23.1252 5.97375 24.2256 6.4165 25.2836C4.41588 26.9373 3.25 29.3755 3.25 32C3.25 33.75 3.79125 35.7565 4.85962 37.3601C3.81562 38.8339 3.25 40.5805 3.25 42.375ZM39.5 2.5C41.657 2.5 43.49 3.828 44.5924 5.46425C43.0294 5.705 41.5871 6.4315 40.4466 7.57062C39.9581 8.0585 39.9576 8.84988 40.4455 9.33838C40.9334 9.82687 41.725 9.82725 42.2132 9.33937C43.1589 8.39512 44.4147 7.875 45.75 7.875C48.4991 7.875 50.75 10.0984 50.75 12.875C50.75 12.908 50.7475 12.9401 50.7469 12.973C50.3348 12.9089 49.9185 12.875 49.5 12.875C44.757 12.875 40.75 17.0537 40.75 22C40.75 22.6904 41.3097 23.25 42 23.25C42.6903 23.25 43.25 22.6904 43.25 22C43.25 18.4709 46.1705 15.375 49.5 15.375C52.9977 15.375 55.75 18.6246 55.75 22C55.75 23.0504 55.4683 24.0799 54.9126 25.0597C54.5839 25.6396 54.768 26.3755 55.3311 26.7323C57.1589 27.8901 58.25 29.8594 58.25 32C58.25 35.5414 55.3824 38.625 52 38.625C51.3097 38.625 50.75 39.1846 50.75 39.875C50.75 40.5654 51.3097 41.125 52 41.125C53.9688 41.125 55.8336 40.3871 57.3329 39.1589C57.9294 40.1317 58.25 41.2412 58.25 42.375C58.25 44.2089 57.4195 45.9517 55.9716 47.1566C55.6056 47.4611 55.4445 47.947 55.5559 48.4098C55.6884 48.9601 55.75 49.4258 55.75 49.8749C55.75 53.7549 52.2406 56.8906 49.0766 56.4581C48.9888 56.4461 48.9007 56.4342 48.8124 56.4243C48.2765 56.3636 47.7639 56.6519 47.5375 57.14C46.3083 59.7886 43.6439 61.5 40.75 61.5C36.6846 61.5 33.25 57.8936 33.25 53.625C33.25 49.4895 36.6145 46.125 40.75 46.125C41.4403 46.125 42 45.5654 42 44.875C42 44.1846 41.4403 43.625 40.75 43.625C37.7654 43.625 35.0839 44.941 33.25 47.0211V23.25C33.25 21.8715 34.3715 20.75 35.75 20.75C36.4403 20.75 37 20.1904 37 19.5C37 18.8096 36.4403 18.25 35.75 18.25C34.8396 18.25 33.986 18.4958 33.25 18.9226V9.125C33.25 5.59575 36.1705 2.5 39.5 2.5ZM8.669 26.7323C9.23212 26.3755 9.41625 25.6396 9.08737 25.0597C8.53175 24.0799 8.25 23.0504 8.25 22C8.25 18.6262 11.0002 15.375 14.5 15.375C17.8295 15.375 20.75 18.4709 20.75 22C20.75 22.6904 21.3096 23.25 22 23.25C22.6904 23.25 23.25 22.6904 23.25 22C23.25 17.0537 19.243 12.875 14.5 12.875C14.0815 12.875 13.6652 12.9089 13.2531 12.973C13.2525 12.9401 13.25 12.9081 13.25 12.875C13.25 10.0854 15.5146 7.875 18.25 7.875C19.5853 7.875 20.8413 8.39512 21.7865 9.33937C22.2749 9.82725 23.0662 9.82675 23.5543 9.3385C24.0421 8.85 24.0417 8.05863 23.5534 7.57075C22.413 6.43163 20.9706 5.70512 19.4075 5.46438C20.5099 3.828 22.343 2.5 24.5 2.5C27.8295 2.5 30.75 5.59575 30.75 9.125V18.9226C30.014 18.4958 29.1604 18.25 28.25 18.25C27.5596 18.25 27 18.8096 27 19.5C27 20.1904 27.5596 20.75 28.25 20.75C29.6285 20.75 30.75 21.8715 30.75 23.25V47.0211C28.9161 44.941 26.2346 43.625 23.25 43.625C22.5596 43.625 22 44.1846 22 44.875C22 45.5654 22.5596 46.125 23.25 46.125C27.3855 46.125 30.75 49.4895 30.75 53.625C30.75 57.8936 27.3154 61.5 23.25 61.5C20.356 61.5 17.6919 59.7886 16.4626 57.14C16.236 56.6519 15.7227 56.364 15.1876 56.4243C15.0992 56.4344 15.0114 56.4461 14.9235 56.4581C11.366 56.9446 7.35975 52.9163 8.44425 48.4098C8.55562 47.9469 8.39437 47.4611 8.0285 47.1566C6.5805 45.9517 5.75 44.2089 5.75 42.375C5.75 41.2411 6.07063 40.1315 6.66725 39.1585C8.1665 40.3872 10.0314 41.125 12 41.125C12.6904 41.125 13.25 40.5654 13.25 39.875C13.25 39.1846 12.6904 38.625 12 38.625C8.60763 38.625 5.75 35.5288 5.75 32C5.75 29.8594 6.84112 27.8901 8.669 26.7323Z" fill="#0C3B5D"/>
<path d="M20.575 30.6321C20.0937 32.1481 18.6732 33.25 17 33.25C16.3096 33.25 15.75 33.8096 15.75 34.5C15.75 35.1904 16.3096 35.75 17 35.75C20.0446 35.75 22.5862 33.5612 23.1377 30.6747C24.8761 30.4474 26.5122 29.7035 27.8334 28.5216C28.3479 28.0614 28.3919 27.2711 27.9316 26.7566C27.4714 26.2421 26.6812 26.1981 26.1666 26.6584C22.1581 30.244 15.75 27.3784 15.75 22C15.75 21.3096 15.1904 20.75 14.5 20.75C13.8096 20.75 13.25 21.3096 13.25 22C13.25 26.3394 16.4259 29.9494 20.575 30.6321Z" fill="#042A4F"/>
<path d="M14.5 48.625C13.8096 48.625 13.25 49.1846 13.25 49.875C13.25 50.5654 13.8096 51.125 14.5 51.125C17.8295 51.125 20.75 54.2209 20.75 57.75C20.75 58.4404 21.3096 59 22 59C22.6904 59 23.25 58.4404 23.25 57.75C23.25 52.8038 19.243 48.625 14.5 48.625Z" fill="#042A4F"/>
<path d="M24.5 38.625C20.2642 38.625 16.6275 40.9481 14.7125 44.326C14.3721 44.9266 14.583 45.6895 15.1835 46.0299C15.7841 46.3702 16.5469 46.1595 16.8874 45.5589C18.3792 42.9269 21.21 41.125 24.5 41.125C25.1904 41.125 25.75 40.5654 25.75 39.875C25.75 39.1846 25.1904 38.625 24.5 38.625Z" fill="#042A4F"/>
<path d="M36.0684 26.7566C35.608 27.2711 35.6521 28.0614 36.1666 28.5216C37.4877 29.7035 39.124 30.4474 40.8622 30.6747C41.4137 33.5612 43.9554 35.75 47 35.75C47.6902 35.75 48.25 35.1904 48.25 34.5C48.25 33.8096 47.6902 33.25 47 33.25C45.3267 33.25 43.9062 32.1481 43.425 30.6321C47.5741 29.9494 50.75 26.3394 50.75 22C50.75 21.3096 50.1902 20.75 49.5 20.75C48.8097 20.75 48.25 21.3096 48.25 22C48.25 25.4462 45.4462 28.25 42 28.25C40.4605 28.25 38.9809 27.6847 37.8334 26.6584C37.319 26.1981 36.5286 26.242 36.0684 26.7566Z" fill="#042A4F"/>
<path d="M49.5 48.625C44.757 48.625 40.75 52.8038 40.75 57.75C40.75 58.4404 41.3098 59 42 59C42.6902 59 43.25 58.4404 43.25 57.75C43.25 54.2209 46.1705 51.125 49.5 51.125C50.1903 51.125 50.75 50.5654 50.75 49.875C50.75 49.1846 50.1903 48.625 49.5 48.625Z" fill="#042A4F"/>
<path d="M47.1124 45.5589C47.4532 46.1603 48.2166 46.37 48.8162 46.03C49.4169 45.6896 49.6277 44.9268 49.2875 44.3261C47.3772 40.9563 43.7455 38.625 39.5 38.625C38.8098 38.625 38.25 39.1846 38.25 39.875C38.25 40.5654 38.8098 41.125 39.5 41.125C42.7876 41.125 45.6205 42.9264 47.1124 45.5589Z" fill="#042A4F"/>
</svg>
