<svg width="170" height="171" viewBox="0 0 170 171" fill="none" xmlns="http://www.w3.org/2000/svg">
<path d="M144.146 134.479C144.146 138.729 141.667 142.271 138.833 142.271H27.9792C25.1458 142.271 22.6667 138.729 22.6667 134.479H144.146Z" fill="#0E3B5D"/>
<path d="M89.9583 139.083H76.8542C76.1458 139.083 75.7917 138.729 75.7917 138.021C75.7917 137.312 76.1458 136.958 76.8542 136.958H89.9583C90.6667 136.958 91.0208 137.312 91.0208 138.021C91.0208 138.729 90.6667 139.083 89.9583 139.083Z" fill="white"/>
<path d="M134.229 131.646H32.5833C30.1042 131.646 27.625 129.521 27.625 126.688V72.5C27.625 70.0209 29.75 67.5417 32.5833 67.5417H134.229C136.708 67.5417 139.188 69.6667 139.188 72.5V126.688C138.833 129.521 136.708 131.646 134.229 131.646Z" fill="#FCDFCD" stroke="#0E3B5D" stroke-width="1.5" stroke-miterlimit="10"/>
<path d="M45.6875 75.6875L77.5625 43.8125" stroke="#0E3B5D" stroke-miterlimit="10"/>
<path d="M121.125 80.2917L89.25 48.0625" stroke="#0E3B5D" stroke-width="1.25" stroke-miterlimit="10"/>
<path d="M51 97.2916C61.1712 97.2916 69.4167 89.0462 69.4167 78.875C69.4167 68.7037 61.1712 60.4583 51 60.4583C40.8288 60.4583 32.5833 68.7037 32.5833 78.875C32.5833 89.0462 40.8288 97.2916 51 97.2916Z" fill="white" stroke="#0E3B5D" stroke-width="1.5" stroke-miterlimit="10"/>
<path d="M42.8542 68.6041C41.4375 70.3749 40.375 72.8541 40.7292 74.9791C40.7292 79.9374 44.625 79.9374 47.4583 82.7708C51.3542 85.9583 49.2292 88.7916 46.75 91.9791" fill="white"/>
<path d="M42.8536 68.6041C41.437 70.7291 40.7286 72.8541 40.7286 75.3333C40.7286 76.3958 41.0828 77.8124 41.7911 78.5208C42.4995 79.5833 43.562 79.9374 44.6245 80.6458C46.7495 81.7083 49.2286 83.1249 49.937 85.6041C50.2911 87.0208 49.5828 88.4374 49.2286 89.1458C48.5203 90.2083 47.812 91.2708 47.1036 91.9791C48.1661 89.8541 49.937 87.7291 49.5828 85.6041C48.8745 83.4791 46.7495 82.0624 44.9786 80.9999C43.9161 80.2916 42.8536 79.5833 42.1453 78.5208C41.437 77.4583 41.0828 76.0416 41.0828 74.9791C40.3745 72.8541 41.437 70.7291 42.8536 68.6041Z" fill="#0E3B5D"/>
<path d="M46.3958 67.5417C44.9792 69.3125 43.9167 71.7917 44.2708 73.9167C44.2708 78.875 48.1667 78.875 51 81.7083C54.8958 84.8958 52.7708 87.7292 50.2917 90.9167" fill="white"/>
<path d="M46.75 67.5417C45.3333 69.6667 44.625 71.7917 44.625 74.2708C44.625 75.3333 44.9792 76.75 45.6875 77.4583C46.3958 78.5208 47.4583 78.875 48.5208 79.5833C50.6458 80.6458 53.125 82.0625 53.8333 84.5417C54.1875 85.9583 53.4792 87.375 53.125 88.0833C52.4167 89.1458 51.7083 90.2083 51 90.9167C52.0625 88.7917 53.8333 86.6667 53.4792 84.5417C52.7708 82.4167 50.6458 81 48.875 79.9375C47.8125 79.2292 46.75 78.5208 46.0417 77.4583C45.3333 76.3958 44.9792 74.9792 44.9792 73.9167C43.9167 71.7917 45.3333 69.3125 46.75 67.5417Z" fill="#0E3B5D"/>
<path d="M50.2917 66.1249C48.875 67.8957 47.8125 70.3749 48.1667 72.4999C48.1667 77.4582 52.0625 77.4582 54.8958 80.2916C58.7917 83.4791 56.6667 86.3124 54.1875 89.4999" fill="white"/>
<path d="M50.2911 66.1249C48.8745 68.2499 48.1661 70.3749 48.1661 72.8541C48.1661 73.9166 48.5203 75.3332 49.2286 76.0416C49.937 77.1041 50.9995 77.4582 52.062 78.1666C54.187 79.2291 56.6661 80.6457 57.3745 83.1249C57.7286 84.5416 57.0203 85.9583 56.6661 86.6666C55.9578 87.7291 55.2495 88.7916 54.5411 89.4999C55.6036 87.3749 57.3745 85.2499 57.0203 83.1249C56.312 80.9999 54.187 79.5833 52.4161 78.5208C51.3536 77.8124 50.2911 77.1041 49.5828 76.0416C48.8745 74.9791 48.5203 73.5624 48.5203 72.4999C47.812 70.3749 48.8745 68.2499 50.2911 66.1249Z" fill="#0E3B5D"/>
<path d="M54.8958 65.0624C53.4792 66.8333 52.4167 69.3124 52.7708 71.4374C52.7708 76.3958 56.6667 76.3958 59.5 79.2291C63.3958 82.4166 61.2708 85.2499 58.7917 88.4374" fill="white"/>
<path d="M54.8953 65.0624C53.4786 67.1874 52.7703 69.3124 52.7703 71.7916C52.7703 72.8541 53.1245 74.2708 53.8328 74.9791C54.5411 76.0416 55.6036 76.3958 56.6661 77.1041C58.7911 78.1666 61.2703 79.5833 61.9786 82.0624C62.3328 83.4791 61.6245 84.8958 61.2703 85.6041C60.562 86.6666 59.8536 87.7291 59.1453 88.4374C60.2078 86.3124 61.9786 84.1874 61.6245 82.0624C60.9161 79.9374 58.7911 78.5208 57.0203 77.4583C55.9578 76.7499 54.8953 76.0416 54.187 74.9791C53.4786 73.9166 53.1245 72.4999 53.1245 71.4374C52.4161 69.3124 53.4786 67.1874 54.8953 65.0624Z" fill="#0E3B5D"/>
<path d="M82.1667 54.7916C89.4039 54.7916 95.2708 48.9247 95.2708 41.6875C95.2708 34.4502 89.4039 28.5833 82.1667 28.5833C74.9294 28.5833 69.0625 34.4502 69.0625 41.6875C69.0625 48.9247 74.9294 54.7916 82.1667 54.7916Z" fill="white" stroke="#0E3B5D" stroke-width="1.5" stroke-miterlimit="10"/>
<path d="M87.125 44.1666C86.4167 38.8541 82.1667 33.1874 82.1667 33.1874C78.2708 39.2083 77.2083 44.1666 77.2083 44.1666C77.2083 44.5208 76.8542 44.8749 76.8542 45.5833C76.8542 48.4166 78.9792 50.5416 81.8125 50.5416C84.6458 50.5416 86.7708 48.4166 86.7708 45.5833C87.125 44.8749 87.125 44.5208 87.125 44.1666Z" fill="#FFD731"/>
<path d="M82.1667 48.4166C83.2292 48.0624 83.9375 47.7083 84.6458 46.9999C85.3542 46.6458 85.7083 45.9374 86.0625 44.8749C86.0625 45.2291 86.4167 45.9374 86.0625 46.2916C86.0625 46.6458 85.7083 47.3541 85.3542 47.7083C84.2917 48.4166 83.2292 48.4166 82.1667 48.4166Z" fill="white"/>
<path d="M114.75 97.2916C124.921 97.2916 133.167 89.0462 133.167 78.875C133.167 68.7037 124.921 60.4583 114.75 60.4583C104.579 60.4583 96.3333 68.7037 96.3333 78.875C96.3333 89.0462 104.579 97.2916 114.75 97.2916Z" fill="white" stroke="#0E3B5D" stroke-width="1.5" stroke-miterlimit="10"/>
<path d="M107.312 67.5417V77.8125C107.312 81.3542 107.312 84.5417 106.958 88.0833C106.604 84.5417 106.604 81.3542 106.958 77.8125L107.312 67.5417Z" fill="#262626"/>
<path d="M110.854 67.5417V77.8125C110.854 81.3542 110.854 84.5417 110.5 88.0833C110.146 84.5417 110.146 81.3542 110.5 77.8125L110.854 67.5417Z" fill="#262626"/>
<path d="M113.687 67.5417V77.8125C113.687 81.3542 113.687 84.5417 113.333 88.0833C112.979 84.5417 112.979 81.3542 113.333 77.8125L113.687 67.5417Z" fill="#262626"/>
<path d="M116.875 67.5417V77.8125C116.875 81.3542 116.875 84.5417 116.521 88.0833C116.167 84.5417 116.167 81.3542 116.521 77.8125L116.875 67.5417Z" fill="#262626"/>
<path d="M120.417 67.5417V77.8125C120.417 81.3542 120.417 84.5417 120.063 88.0833C119.708 84.5417 119.708 81.3542 120.063 77.8125L120.417 67.5417Z" fill="#262626"/>
<path d="M123.604 67.5417V77.8125C123.604 81.3542 123.604 84.5417 123.25 88.0833C122.896 84.5417 122.896 81.3542 123.25 77.8125L123.604 67.5417Z" fill="#262626"/>
</svg>
