<svg width="170" height="170" viewBox="0 0 170 170" fill="none" xmlns="http://www.w3.org/2000/svg">
<path d="M113.333 147.333H52.7708C51.3542 147.333 50.2917 146.271 50.2917 144.854V18.7708C50.2917 17.3541 51.3542 16.2916 52.7708 16.2916H113.333C114.75 16.2916 115.813 17.3541 115.813 18.7708V144.854C116.167 145.917 114.75 147.333 113.333 147.333Z" fill="#FEDDC5" stroke="#0C3B5D" stroke-width="2" stroke-miterlimit="10"/>
<path d="M126.792 144.5H39.3125V152.292H126.792V144.5Z" fill="#306382" stroke="#0C3B5D" stroke-width="0.25" stroke-miterlimit="10"/>
<path d="M139.542 152.292H25.1458V153.708H139.542V152.292Z" fill="#0C3B5D"/>
<path d="M107.667 86.7708C108.449 86.7708 109.083 86.1366 109.083 85.3542C109.083 84.5718 108.449 83.9375 107.667 83.9375C106.884 83.9375 106.25 84.5718 106.25 85.3542C106.25 86.1366 106.884 86.7708 107.667 86.7708Z" fill="#0C3B5D"/>
<path d="M125.375 152.646H106.25C105.188 152.646 104.125 151.583 104.125 150.521V132.104C104.125 131.042 105.188 129.979 106.25 129.979H125.375C126.438 129.979 127.5 131.042 127.5 132.104V150.521C127.854 151.583 126.792 152.646 125.375 152.646Z" fill="#FEDDC5" stroke="#0C3B5D" stroke-width="1.5" stroke-miterlimit="10"/>
<path d="M128.563 131.396H103.771C102.708 131.396 102 130.687 102 129.625C102 128.562 102.708 127.854 103.771 127.854H128.563C129.625 127.854 130.333 128.562 130.333 129.625C129.979 130.687 129.271 131.396 128.563 131.396Z" fill="#306382" stroke="#0C3B5D" stroke-width="0.25" stroke-miterlimit="10"/>
<path d="M118.646 140.604L116.167 138.833L113.333 140.604V131.396H118.646V140.604Z" fill="#306382" stroke="#0C3B5D" stroke-width="0.25" stroke-miterlimit="10"/>
<path d="M83.9375 88.5416C83.9375 88.5416 85 80.75 83.2292 77.5625C83.2292 77.5625 80.75 71.5416 83.2292 69.4166C83.2292 69.4166 84.6458 68.3542 85.3542 68C85.3542 68 86.7708 67.2916 87.125 66.5833C87.125 66.5833 88.5417 68 86.4167 70.4791C86.4167 70.4791 83.9375 72.6041 87.8333 74.375C87.8333 74.375 90.6667 75.7916 89.6042 78.625C89.6042 78.625 91.7292 76.8541 88.1875 74.0208C88.1875 74.0208 85.7083 72.6041 87.125 70.125V70.4791C87.125 70.8333 87.4792 71.1875 87.4792 71.5416C87.8333 71.8958 87.8333 72.25 88.1875 72.6041C88.5417 72.9583 89.25 72.9583 89.25 72.6041C89.25 72.6041 89.25 72.25 89.6042 72.25C89.6042 72.25 89.6042 72.25 89.9583 72.25C89.9583 72.25 90.3125 72.25 90.3125 72.6041C90.6667 72.9583 90.6667 73.3125 91.0208 73.6666C91.375 74.0208 91.375 74.0208 91.7292 74.0208C92.0833 74.0208 92.0833 74.0208 92.4375 74.0208C92.4375 74.0208 92.4375 73.6666 92.7917 73.3125C92.7917 73.3125 92.7917 73.3125 93.1458 73.3125C93.5 73.3125 93.8542 73.6666 93.8542 74.0208C94.2083 74.375 94.5625 74.7291 95.2708 74.375C95.9792 74.0208 95.9792 72.9583 95.9792 72.25C95.9792 71.8958 95.9792 71.1875 95.9792 70.8333C95.9792 70.8333 97.3958 78.625 96.6875 88.5416H83.9375Z" fill="#0C3B5D"/>
<path d="M84.2917 68.3542C84.2917 68.3542 83.5833 65.1667 85.7083 64.8125C85.7083 64.8125 86.4167 64.4584 86.7708 66.5834L84.2917 68.3542Z" fill="#0C3B5D"/>
<path d="M87.4792 69.0625C87.4792 69.0625 88.1875 67.2916 87.4792 67.2916L88.1875 65.875C88.5417 65.5208 88.5417 65.5208 89.25 65.5208C89.9583 65.5208 90.3125 66.2291 90.3125 66.9375C90.3125 67.6458 90.3125 68.3541 90.3125 68.7083C90.3125 69.4166 90.3125 70.4792 89.9583 71.1875C89.9583 71.8958 89.25 72.9583 88.5417 72.6042C87.8333 72.6042 87.8333 71.5417 87.8333 71.1875C87.4792 70.4792 87.4792 69.7708 87.4792 69.0625Z" fill="#0C3B5D"/>
<path d="M90.6667 67.6458C90.6667 67.2916 91.0208 66.5833 91.7292 66.5833C92.0833 66.5833 92.7917 66.5833 93.1458 67.2916C93.1458 67.6458 93.5 68 93.5 68C93.5 68.7083 93.5 74.0208 92.0833 73.6666C91.375 73.6666 91.0208 72.9583 91.0208 72.6041C90.6667 71.5416 90.6667 69.7708 90.6667 68.3541C90.6667 68 90.6667 68 90.6667 67.6458Z" fill="#0C3B5D"/>
<path d="M93.8542 69.4167C93.8542 69.0625 94.2083 68.7083 94.5625 68.7083C94.9167 68.3542 95.2708 68.7083 95.625 69.0625C96.3333 70.125 95.9792 71.8958 95.625 72.9583C95.625 72.9583 94.9167 75.4375 94.2083 73.3125C93.8542 73.3125 93.1458 70.8333 93.8542 69.4167Z" fill="#0C3B5D"/>
<path d="M95.9792 94.9167H85.7083C84.2917 94.9167 82.875 93.5001 82.875 92.0834C82.875 90.6667 84.2917 89.2501 85.7083 89.2501H95.9792C97.3958 89.2501 98.8125 90.6667 98.8125 92.0834C98.8125 93.8542 97.3958 94.9167 95.9792 94.9167Z" fill="#FEDDC5" stroke="#0C3B5D" stroke-width="1.5" stroke-miterlimit="10"/>
<path d="M77.5625 56.6667L83.2292 61.2709" stroke="#0C3B5D" stroke-width="1.5" stroke-miterlimit="10"/>
<path d="M95.9792 54.1875L92.0833 59.8542" stroke="#0C3B5D" stroke-width="1.5" stroke-miterlimit="10"/>
<path d="M84.2917 54.5417L85.7083 58.4376" stroke="#0C3B5D" stroke-width="1.5" stroke-miterlimit="10"/>
<path d="M89.6042 53.8334L88.8958 58.4375" stroke="#0C3B5D" stroke-width="1.5" stroke-miterlimit="10"/>
</svg>
