<svg width="78" height="78" viewBox="0 0 78 78" fill="none" xmlns="http://www.w3.org/2000/svg">
<g clip-path="url(#clip0)">
<path d="M28.5598 75.5483L28.5593 75.5481C26.3715 74.925 24.2655 74.1111 22.2592 73.1244L21.8179 74.0218L22.2592 73.1244C18.9259 71.4853 15.867 69.3729 13.171 66.8723L13.1709 66.8722C5.68437 59.9314 1 50.014 1 39C1 18.0129 18.0129 1 39 1C59.9871 1 77 18.0129 77 39C77 59.9871 59.9871 77 39 77C35.3765 77 31.8745 76.4942 28.5598 75.5483Z" fill="#FFF4EB" stroke="#0C3B5D" stroke-width="2"/>
<path d="M55.1234 40.4299C57.4556 42.7621 60.0121 49.3896 54.4409 53.3696C48.8696 57.349 55.7144 66.9003 55.7144 66.9003L41.547 72.6304L23.5591 62.443L26.6792 35.4597" fill="#393939"/>
<path d="M58.2138 68.4903V72.9458C55.9227 74.2431 53.4887 75.319 50.9388 76.1361C50.6745 76.2218 50.4103 76.3033 50.1431 76.3825C49.1511 76.6788 48.1418 76.9365 47.1183 77.1513C46.6696 77.2471 46.2191 77.3346 45.765 77.4126C43.5667 77.7994 41.3066 77.9999 39 77.9999C36.6934 77.9999 34.4333 77.7994 32.235 77.4144C31.7809 77.3364 31.3304 77.2483 30.8817 77.1531C29.6927 76.9014 28.5258 76.5961 27.3796 76.2396C27.3159 76.2188 27.2523 76.1998 27.1886 76.1789C27.1458 76.1658 27.1041 76.1516 27.0612 76.1373C24.5125 75.3208 22.0773 74.2449 19.7862 72.9458V68.4903C19.7862 63.1149 22.7123 58.422 27.0612 55.9214C28.2407 55.2412 29.5237 54.7241 30.8817 54.3991C31.5994 54.226 32.3379 54.1064 33.0943 54.0462C33.4859 54.0141 33.8804 53.998 34.2803 53.998H43.7185C44.8343 53.998 45.9197 54.1224 46.9623 54.3611C47.0147 54.3741 47.0677 54.3849 47.1183 54.3979C48.4763 54.7241 49.7593 55.2412 50.9388 55.9214C55.2859 58.4238 58.2138 63.1161 58.2138 68.4903Z" fill="#0E3B5D"/>
<path d="M58.2138 68.4903V72.9458C52.8169 76.0087 46.6172 77.8202 40.0075 77.9874C39.6719 77.9952 39.3374 77.9999 39 77.9999C38.6626 77.9999 38.327 77.9952 37.9925 77.9856C34.2339 77.8916 30.6092 77.2644 27.1886 76.1789V68.4903C27.1886 60.4863 33.6787 53.998 41.6839 53.998H43.7185C51.7249 53.998 58.2138 60.4863 58.2138 68.4903Z" fill="#0C3B5D"/>
<path d="M47.3301 54.4503V59.5479C47.3301 62.055 45.2979 64.0872 42.7907 64.0872H35.2075C32.7003 64.0872 30.6681 62.055 30.6681 59.5479V54.4521C31.453 54.2498 32.2635 54.1129 33.0943 54.0462C33.4859 54.0141 33.8804 53.998 34.2803 53.998H43.7185C44.8343 53.998 45.9197 54.1224 46.9623 54.3611C47.0849 54.3896 47.2093 54.4182 47.3301 54.4503Z" fill="#FEDDC5"/>
<path d="M34.2803 53.998H41.6839C37.276 53.998 33.3282 55.9654 30.6681 59.07V54.4521C31.453 54.2498 32.2635 54.1129 33.0943 54.0462C33.4859 54.0141 33.8804 53.998 34.2803 53.998Z" fill="#FFE8DD"/>
<path d="M44.1702 48.415V54.7611C44.1702 57.0844 42.6384 59.0482 40.5282 59.7004C40.0456 59.8503 39.5308 59.9313 38.9982 59.9313C36.143 59.9313 33.828 57.617 33.828 54.7611V48.415H44.1702Z" fill="#FEDDC5"/>
<path d="M44.1702 54.3594V54.7611C44.1702 57.0843 42.6384 59.0481 40.5282 59.7003C38.6251 59.1154 37.1933 57.4598 36.9291 55.4347C37.2742 55.4555 37.6218 55.4662 37.9705 55.4662C38.9488 55.4662 39.9081 55.3889 40.8424 55.2354C41.9933 55.0503 43.1055 54.7539 44.1702 54.3594Z" fill="#FEDDC5"/>
<path d="M24.5809 38.015C24.5809 40.4085 22.8325 42.3937 20.5426 42.7621C20.2927 42.8025 20.035 42.8233 19.7726 42.8233C17.1161 42.8233 14.9636 40.6715 14.9636 38.015C14.9636 35.3585 17.1161 33.2061 19.7726 33.2061C20.035 33.2061 20.2927 33.2275 20.5426 33.2679C22.8325 33.6363 24.5809 35.6209 24.5809 38.015Z" fill="#F6BA97"/>
<path d="M24.5809 38.0151C24.5809 40.4086 22.8325 42.3938 20.5426 42.7622C20.1266 41.2495 19.9047 39.6576 19.9047 38.0151C19.9047 36.3721 20.1266 34.7802 20.5426 33.2681C22.8325 33.6364 24.5809 35.6211 24.5809 38.0151Z" fill="#EAA27F"/>
<path d="M21.4912 38.0153C21.4912 38.9644 20.7217 39.7339 19.7726 39.7339C18.8234 39.7339 18.0539 38.9644 18.0539 38.0153C18.0539 37.0661 18.8234 36.2966 19.7726 36.2966C20.7217 36.2966 21.4912 37.0661 21.4912 38.0153Z" fill="#EAA27F"/>
<path d="M53.4173 38.015C53.4173 40.4085 55.1663 42.3937 57.4562 42.7621C57.7061 42.8025 57.9638 42.8233 58.2263 42.8233C60.8828 42.8233 63.0352 40.6715 63.0352 38.015C63.0352 35.3585 60.8828 33.2061 58.2263 33.2061C57.9638 33.2061 57.7061 33.2275 57.4562 33.2679C55.1663 33.6363 53.4173 35.6209 53.4173 38.015Z" fill="#FEDDC5"/>
<path d="M53.4173 38.0151C53.4173 40.4086 55.1663 42.3938 57.4562 42.7622C57.8716 41.2495 58.0941 39.6576 58.0941 38.0151C58.0941 36.3721 57.8722 34.7802 57.4562 33.2681C55.1663 33.6364 53.4173 35.6211 53.4173 38.0151Z" fill="#EAA27F"/>
<path d="M59.9449 38.0153C59.9449 38.9644 59.1754 39.7339 58.2263 39.7339C57.2771 39.7339 56.5076 38.9644 56.5076 38.0153C56.5076 37.0661 57.2771 36.2966 58.2263 36.2966C59.1754 36.2966 59.9449 37.0661 59.9449 38.0153Z" fill="#FFF4EB"/>
<path d="M56.8909 28.6465V35.4597C56.8909 44.3629 50.3865 51.7491 41.8701 53.1196C41.8416 53.1244 41.8112 53.1292 41.7827 53.1339C40.8769 53.2785 39.9474 53.3505 38.9982 53.3505C29.1179 53.3505 21.1079 45.34 21.1079 35.4597V28.6465C21.1079 26.566 21.4626 24.5665 22.1184 22.7092C24.5654 15.746 31.2001 10.7544 38.9982 10.7544H39C39.9474 10.7544 40.8781 10.8276 41.7856 10.971C50.3437 12.3082 56.8909 19.7129 56.8909 28.6465Z" fill="#FFE8DD"/>
<path d="M56.8909 28.6466V35.4599C56.8909 44.363 50.3865 51.7493 41.8701 53.1198C41.8416 53.1246 41.8112 53.1293 41.7827 53.1341C33.2246 51.7969 26.6792 44.3916 26.6792 35.4599V28.6466C26.6792 19.7131 33.2264 12.3084 41.7856 10.9712C50.3437 12.3084 56.8909 19.7131 56.8909 28.6466Z" fill="#FEDDC5"/>
<path d="M51.1768 40.1576C51.1768 41.3882 50.1788 42.3862 48.9482 42.3862C47.7175 42.3862 46.7195 41.3882 46.7195 40.1576C46.7195 38.9263 47.7175 37.929 48.9482 37.929C50.1788 37.929 51.1768 38.9263 51.1768 40.1576Z" fill="#FEDDC5"/>
<path d="M31.2787 40.1576C31.2787 41.3882 30.2813 42.3862 29.05 42.3862C27.8194 42.3862 26.8214 41.3882 26.8214 40.1576C26.8214 38.9263 27.8194 37.929 29.05 37.929C30.2813 37.929 31.2787 38.9263 31.2787 40.1576Z" fill="#FEDDC5"/>
<path d="M48.6072 33.9488C48.6072 32.3076 47.2771 30.9775 45.6359 30.9775C43.9946 30.9775 42.664 32.3076 42.664 33.9488" fill="#FEDDC5"/>
<path d="M35.3354 33.9488C35.3354 32.3076 34.0054 30.9775 32.3641 30.9775C30.7229 30.9775 29.3922 32.3076 29.3922 33.9488" fill="#FEDDC5"/>
<path d="M34.3934 35.2139C34.3934 36.3345 33.4847 37.2432 32.3641 37.2432C31.243 37.2432 30.3343 36.3345 30.3343 35.2139C30.3343 34.0928 31.243 33.1841 32.3641 33.1841C33.4847 33.1841 34.3934 34.0928 34.3934 35.2139Z" fill="#2F373B"/>
<path d="M47.6657 35.2139C47.6657 36.3345 46.757 37.2432 45.6359 37.2432C44.5147 37.2432 43.606 36.3345 43.606 35.2139C43.606 34.0928 44.5147 33.1841 45.6359 33.1841C46.757 33.1841 47.6657 34.0928 47.6657 35.2139Z" fill="#2F373B"/>
<path d="M41.0293 40.3241H36.9701C36.4869 40.3241 36.0948 39.9319 36.0948 39.4487C36.0948 38.9649 36.4869 38.5728 36.9701 38.5728H41.0293C41.5131 38.5728 41.9046 38.9649 41.9046 39.4487C41.9046 39.9319 41.5131 40.3241 41.0293 40.3241Z" fill="#EBC3A5"/>
<path d="M39 45.8631C37.5015 45.8631 36.0037 45.4876 34.638 44.7366C34.2529 44.5254 34.1125 44.0415 34.3237 43.6559C34.5356 43.2709 35.02 43.1304 35.405 43.3417C37.6563 44.5795 40.3437 44.5795 42.5949 43.3417C42.98 43.1304 43.4638 43.2709 43.6756 43.6559C43.8875 44.0415 43.747 44.5254 43.362 44.7366C41.9963 45.4876 40.4978 45.8631 39 45.8631Z" fill="#EBC3A5"/>
<path d="M33.9798 34.8559C33.9798 35.3361 33.5906 35.7253 33.1098 35.7253C32.6295 35.7253 32.2403 35.3361 32.2403 34.8559C32.2403 34.3756 32.6295 33.9858 33.1098 33.9858C33.5906 33.9858 33.9798 34.3756 33.9798 34.8559Z" fill="white"/>
<path d="M47.3515 34.8559C47.3515 35.3361 46.9617 35.7253 46.4815 35.7253C46.0013 35.7253 45.6121 35.3361 45.6121 34.8559C45.6121 34.3756 46.0013 33.9858 46.4815 33.9858C46.9617 33.9858 47.3515 34.3756 47.3515 34.8559Z" fill="white"/>
<path d="M57.4556 33.268C49.8051 33.268 48.1144 19.8927 48.1144 19.8927C48.1144 24.9867 37.3284 29.5713 32.6325 24.8754C32.6325 24.8754 37.2492 32.198 27.0612 37.7693C27.0612 37.7693 33.4287 40.6299 30.245 48.2757C27.0612 55.9214 29.6082 64.5122 29.6082 64.5122C29.6082 64.5122 32.3445 71.6277 28.2854 76.5098C22.3112 74.8067 16.9227 71.7152 12.491 67.6055C13.4652 61.2665 17.047 52.868 14.963 38.0145C11.9388 16.4513 25.3105 9.59403 36.2941 8.16105C47.2777 6.72866 49.6653 14.3697 49.6653 14.3697C58.8981 12.141 60.8084 33.268 57.4556 33.268Z" fill="#303030"/>
<path d="M23.8775 38.0145C26.7334 58.3696 18.9489 66.6021 21.8179 74.0217C18.3967 72.3394 15.2576 70.1715 12.491 67.6054C13.4652 61.2665 17.047 52.868 14.963 38.0145C11.9388 16.4513 25.3105 9.59401 36.2941 8.16103C39.0268 7.80457 41.2286 8.00988 42.9937 8.52106C32.5212 10.57 21.0538 17.8842 23.8775 38.0145Z" fill="#393939"/>
<path d="M61.4576 42.4599C61.4576 43.2151 60.8453 43.8275 60.0907 43.8275C59.3355 43.8275 58.7232 43.2151 58.7232 42.4599C58.7232 41.7048 59.3355 41.093 60.0907 41.093C60.8453 41.093 61.4576 41.7048 61.4576 42.4599Z" fill="#0C3B5D"/>
</g>
<defs>
<clipPath id="clip0">
<rect width="78" height="78" fill="white"/>
</clipPath>
</defs>
</svg>
