<svg width="107" height="92" viewBox="0 0 107 92" fill="none" xmlns="http://www.w3.org/2000/svg">
<path d="M56.4509 33.5519V13.8567H40.4803V33.5519C30.2043 36.9113 22.7782 46.5692 22.7782 57.9671C22.7782 72.1538 34.2789 83.6545 48.4656 83.6545C62.6523 83.6545 74.1537 72.1545 74.1537 57.9678C74.1537 46.5699 66.7269 36.9113 56.4509 33.5519Z" fill="#FFF4EB"/>
<path d="M23.3158 52.8167C22.9759 54.4827 22.7782 56.2012 22.7782 57.9679C22.7782 72.1546 34.2789 83.6553 48.4656 83.6553C62.6523 83.6553 74.1537 72.1546 74.1537 57.9679C74.1537 56.2012 73.9554 54.4827 73.6154 52.8167H23.3158Z" fill="#0E3B5D"/>
<path d="M48.4656 81.4991C38.4355 81.4991 29.6919 76.2738 25.0502 68.5271C29.0788 77.4453 38.0437 83.6553 48.4656 83.6553C58.8875 83.6553 67.8525 77.4453 71.8811 68.5271C67.2401 76.2738 58.4958 81.4991 48.4656 81.4991Z" fill="white"/>
<path d="M56.6953 13.8568H40.2359C38.7294 13.8568 37.5083 12.6357 37.5083 11.1292V8.19812C37.5083 6.69162 38.7294 5.47046 40.2359 5.47046H56.6953C58.2018 5.47046 59.423 6.69162 59.423 8.19812V11.1292C59.4237 12.6357 58.2025 13.8568 56.6953 13.8568Z" fill="#FFF4EB"/>
<path d="M16.3303 46.2991V76.3752C16.3303 79.9359 19.2168 82.8231 22.7782 82.8231C26.3389 82.8231 29.2261 79.9366 29.2261 76.3752V46.2991H16.3303Z" fill="#FFF4EB"/>
<path d="M16.3303 62.4429V76.3758C16.3303 79.9365 19.2168 82.8237 22.7782 82.8237C26.3389 82.8237 29.2261 79.9372 29.2261 76.3758V62.4429H16.3303Z" fill="#0E3B5D"/>
<path d="M29.4231 46.2991H16.1334C14.9165 46.2991 13.9304 45.313 13.9304 44.0962V41.7293C13.9304 40.5125 14.9165 39.5264 16.1334 39.5264H29.4238C30.6406 39.5264 31.6268 40.5125 31.6268 41.7293V44.0962C31.626 45.313 30.6399 46.2991 29.4231 46.2991Z" fill="#FFF4EB"/>
<path d="M85.6674 73.2378L81.3103 67.1794C81.1033 67.4677 80.864 67.7379 80.5837 67.9801C80.1726 68.3359 79.7154 68.6011 79.2367 68.788L83.5291 74.7565C84.0869 74.0471 84.8337 73.5246 85.6674 73.2378Z" fill="#FFF4EB"/>
<path d="M80.5758 53.5647L77.7475 59.8609C78.6294 59.8976 79.4969 60.1851 80.2387 60.7148L82.9678 54.6392C82.1024 54.5228 81.2694 54.162 80.5758 53.5647Z" fill="#FFF4EB"/>
<path d="M73.2043 66.0481C72.8988 65.1986 72.8514 64.2851 73.0548 63.4197L66.627 64.3569C67.0065 65.1785 67.1287 66.0805 67.0043 66.9523L73.2043 66.0481Z" fill="#FFF4EB"/>
<path d="M77.5556 69.1093C80.1116 69.1093 82.1836 67.0373 82.1836 64.4813C82.1836 61.9253 80.1116 59.8533 77.5556 59.8533C74.9996 59.8533 72.9276 61.9253 72.9276 64.4813C72.9276 67.0373 74.9996 69.1093 77.5556 69.1093Z" fill="white"/>
<path d="M77.5556 69.1093C80.1116 69.1093 82.1836 67.0373 82.1836 64.4813C82.1836 61.9253 80.1116 59.8533 77.5556 59.8533C74.9996 59.8533 72.9276 61.9253 72.9276 64.4813C72.9276 67.0373 74.9996 69.1093 77.5556 69.1093Z" fill="#FEDDC5"/>
<path d="M87.1689 82.2439C89.7249 82.2439 91.7969 80.1718 91.7969 77.6158C91.7969 75.0598 89.7249 72.9878 87.1689 72.9878C84.6129 72.9878 82.5408 75.0598 82.5408 77.6158C82.5408 80.1718 84.6129 82.2439 87.1689 82.2439Z" fill="#FEDDC5"/>
<path d="M83.5888 54.686C86.1448 54.686 88.2168 52.614 88.2168 50.058C88.2168 47.502 86.1448 45.4299 83.5888 45.4299C81.0328 45.4299 78.9608 47.502 78.9608 50.058C78.9608 52.614 81.0328 54.686 83.5888 54.686Z" fill="#FEDDC5"/>
<path d="M62.4266 70.9226C64.9826 70.9226 67.0547 68.8505 67.0547 66.2945C67.0547 63.7385 64.9826 61.6665 62.4266 61.6665C59.8706 61.6665 57.7986 63.7385 57.7986 66.2945C57.7986 68.8505 59.8706 70.9226 62.4266 70.9226Z" fill="#FEDDC5"/>
<path d="M22.7782 35.8284C24.4371 35.8284 25.7819 34.4836 25.7819 32.8247C25.7819 31.1658 24.4371 29.821 22.7782 29.821C21.1193 29.821 19.7746 31.1658 19.7746 32.8247C19.7746 34.4836 21.1193 35.8284 22.7782 35.8284Z" fill="#FEDDC5"/>
<path d="M22.7782 16.8606C24.4371 16.8606 25.7819 15.5158 25.7819 13.8569C25.7819 12.1981 24.4371 10.8533 22.7782 10.8533C21.1193 10.8533 19.7746 12.1981 19.7746 13.8569C19.7746 15.5158 21.1193 16.8606 22.7782 16.8606Z" fill="#FEDDC5"/>
<path d="M16.3303 27.3362C17.9892 27.3362 19.334 25.9914 19.334 24.3325C19.334 22.6736 17.9892 21.3289 16.3303 21.3289C14.6714 21.3289 13.3267 22.6736 13.3267 24.3325C13.3267 25.9914 14.6714 27.3362 16.3303 27.3362Z" fill="#FEDDC5"/>
<path d="M29.2261 59.3572C28.8294 59.3572 28.5074 59.6792 28.5074 60.0759V66.0358C28.5074 66.4326 28.8294 66.7546 29.2261 66.7546C29.6229 66.7546 29.9449 66.4326 29.9449 66.0358V60.0759C29.9449 59.6792 29.6229 59.3572 29.2261 59.3572Z" fill="#0E3B5D"/>
<path d="M92.0362 75.4012C91.4447 74.101 90.3824 73.1091 89.0448 72.6082C88.0206 72.2243 86.9518 72.1784 85.9585 72.4112L82.18 67.1579C82.5818 66.465 82.8291 65.6873 82.8887 64.8658C82.9915 63.4412 82.5329 62.0619 81.5986 60.9824C81.4491 60.8099 81.2881 60.6532 81.122 60.5044L83.4148 55.3999C83.4752 55.402 83.5363 55.4063 83.5967 55.4063C84.8804 55.4063 86.1073 54.9506 87.0877 54.1018C89.3172 52.1719 89.5609 48.7888 87.6318 46.5599C85.7026 44.3304 82.3187 44.086 80.0892 46.0159C79.0096 46.9509 78.3577 48.2497 78.2557 49.6743C78.1529 51.0989 78.6114 52.4781 79.5458 53.5577C79.599 53.6195 79.6572 53.6741 79.7133 53.7331L77.281 59.1488C76.4171 59.1927 75.5611 59.445 74.7906 59.9114C74.8387 59.2689 74.8725 58.6227 74.8725 57.9687C74.8725 46.6893 67.7806 36.7361 57.1704 33.0374V14.5281C58.8451 14.2945 60.1432 12.8671 60.1432 11.1292V8.19738C60.1432 6.29701 58.5971 4.75098 56.6967 4.75098H40.2374C38.337 4.75098 36.791 6.29701 36.791 8.19738V11.1292C36.791 12.8671 38.089 14.2945 39.7637 14.5281V33.0367C36.0967 34.3146 32.8637 36.3523 30.1864 38.9218C29.942 38.8557 29.6904 38.8082 29.4252 38.8082H16.1327C14.5219 38.8082 13.2117 40.1185 13.2117 41.7292V44.0961C13.2117 45.5285 14.2495 46.7174 15.6116 46.9646V76.3751C15.6116 80.3268 18.8265 83.5418 22.7782 83.5418C26.6084 83.5418 29.7364 80.5194 29.9262 76.7359C34.698 81.4509 41.2436 84.3734 48.4656 84.3734C59.6889 84.3734 69.2907 77.3325 73.1065 67.4382C73.2302 67.6244 73.3624 67.8062 73.5126 67.9794C74.4477 69.059 75.7465 69.7109 77.1711 69.8129C77.3026 69.8223 77.4334 69.8273 77.5635 69.8273C78.0422 69.8273 78.5123 69.7634 78.9651 69.6404L82.6472 74.7608C82.456 75.0641 82.2922 75.3904 82.1613 75.739C81.1271 78.4998 82.5322 81.5875 85.2929 82.6218C85.9089 82.8525 86.5407 82.9618 87.1624 82.9618C89.3287 82.9618 91.3721 81.6349 92.1757 79.4895C92.6774 78.154 92.6278 76.7014 92.0362 75.4012ZM78.794 59.2868L80.8719 54.6603C81.2126 54.8622 81.5748 55.0232 81.9536 55.1447L79.9145 59.6829C79.5552 59.5068 79.1785 59.3781 78.794 59.2868ZM81.0293 47.1026C81.7466 46.4816 82.6436 46.1488 83.5823 46.1488C83.6779 46.1488 83.7735 46.1517 83.8691 46.1589C84.9106 46.2336 85.8607 46.7102 86.5443 47.5001C87.9545 49.1302 87.7762 51.6034 86.1468 53.015C85.3569 53.6986 84.3514 54.0313 83.307 53.958C82.2656 53.8833 81.3154 53.4068 80.6326 52.6169C79.949 51.8269 79.6141 50.8185 79.6896 49.7771C79.765 48.7356 80.2401 47.7854 81.0293 47.1026ZM67.7669 66.115C67.754 65.7204 67.6936 65.3279 67.5937 64.9427L72.221 64.2678C72.2052 64.6523 72.2318 65.0376 72.2994 65.4192C72.2958 65.4314 72.2907 65.4437 72.2864 65.4566L67.7669 66.115ZM66.3266 66.5757C66.2518 67.6172 65.7753 68.5674 64.9861 69.2509C63.356 70.6618 60.882 70.4835 59.4711 68.8534C58.7876 68.0635 58.4527 67.0551 58.5281 66.0136C58.6029 64.9722 59.0794 64.022 59.8693 63.3384C60.5866 62.7182 61.4836 62.3847 62.4223 62.3847C62.5172 62.3847 62.6135 62.3875 62.7091 62.3947C63.7506 62.4695 64.7007 62.946 65.3843 63.7359C66.0664 64.5258 66.4013 65.5349 66.3266 66.5757ZM38.227 11.1292V8.19738C38.227 7.08907 39.1283 6.18848 40.2359 6.18848H56.6953C57.8036 6.18848 58.7042 7.08979 58.7042 8.19738V11.1292C58.7042 12.2375 57.8029 13.1381 56.6953 13.1381H40.2359C39.1283 13.1381 38.227 12.2368 38.227 11.1292ZM14.6492 44.0968V41.7299C14.6492 40.912 15.3147 40.2464 16.1327 40.2464H29.4231C30.2417 40.2464 30.9073 40.912 30.9073 41.7299V44.0968C30.9073 44.9147 30.2417 45.5803 29.4231 45.5803H22.7779H16.1327C15.3147 45.5803 14.6492 44.9147 14.6492 44.0968ZM48.4656 82.9366C41.1243 82.9366 34.5168 79.7475 29.9442 74.6868V69.1697C29.9442 68.7729 29.6222 68.4509 29.2254 68.4509C28.8287 68.4509 28.5067 68.7729 28.5067 69.1697V76.3751C28.5067 79.534 25.9364 82.1043 22.7775 82.1043C19.6186 82.1043 17.0483 79.534 17.0483 76.3751V67.684H21.9028C22.2995 67.684 22.6215 67.362 22.6215 66.9653C22.6215 66.5685 22.2995 66.2465 21.9028 66.2465H17.0491V63.1616H21.9035C22.3002 63.1616 22.6222 62.8396 22.6222 62.4429C22.6222 62.0461 22.3002 61.7241 21.9035 61.7241H17.0491V58.6393H21.9035C22.3002 58.6393 22.6222 58.3173 22.6222 57.9205C22.6222 57.5238 22.3002 57.2018 21.9035 57.2018H17.0491V54.1162H21.9035C22.3002 54.1162 22.6222 53.7942 22.6222 53.3974C22.6222 53.0007 22.3002 52.6787 21.9035 52.6787H17.0491V47.0185H28.5067V56.9912C28.5067 57.3879 28.8287 57.7099 29.2254 57.7099C29.6222 57.7099 29.9442 57.3879 29.9442 56.9912V46.9653C31.3062 46.7181 32.3441 45.5293 32.3441 44.0968V41.7299C32.3441 40.9264 32.0177 40.1983 31.4909 39.67C34.0755 37.2701 37.1848 35.3863 40.7024 34.2363C40.9978 34.1392 41.1976 33.8639 41.1976 33.5527V14.5756H55.7307V18.0385H49.3396C48.9429 18.0385 48.6209 18.3605 48.6209 18.7573C48.6209 19.154 48.9429 19.476 49.3396 19.476H55.7307V22.7039H49.3396C48.9429 22.7039 48.6209 23.0259 48.6209 23.4227C48.6209 23.8194 48.9429 24.1414 49.3396 24.1414H55.7307V27.37H49.3396C48.9429 27.37 48.6209 27.692 48.6209 28.0888C48.6209 28.4855 48.9429 28.8075 49.3396 28.8075H55.7307V33.5527C55.7307 33.8639 55.9306 34.1392 56.226 34.2363C66.5177 37.6 73.4328 47.1378 73.4328 57.9687C73.4328 59.133 73.3466 60.2773 73.1913 61.3993C72.8887 61.8276 72.6559 62.2912 72.4934 62.7757L67.0223 63.5735C66.862 63.3032 66.6809 63.0423 66.4682 62.7965C65.5338 61.7162 64.2343 61.065 62.8097 60.9623C61.3837 60.8573 60.0059 61.3173 58.9263 62.2524C57.8467 63.1875 57.1948 64.4863 57.0921 65.9109C56.9893 67.3354 57.4478 68.7147 58.3822 69.7943C59.4381 71.0147 60.9295 71.6393 62.4288 71.6393C63.6693 71.6393 64.9157 71.2109 65.9248 70.3376C66.7887 69.5901 67.3501 68.6234 67.6074 67.5913L71.7402 66.9883C68.1162 76.3097 59.0535 82.9366 48.4656 82.9366ZM77.2738 68.3805C76.2324 68.3057 75.2822 67.8292 74.5994 67.04C73.1885 65.4099 73.3667 62.9359 74.9961 61.525C75.7343 60.8861 76.6449 60.5734 77.552 60.5734C78.6481 60.5734 79.7384 61.0305 80.5111 61.9225C81.1946 62.7124 81.5296 63.7208 81.4541 64.7623C81.3793 65.8038 80.9028 66.7539 80.1129 67.4375C79.323 68.121 78.316 68.4603 77.2738 68.3805ZM81.0545 68.5242C81.1249 68.4631 81.1882 68.397 81.255 68.333L84.5742 72.9481C84.2292 73.14 83.9043 73.3693 83.6075 73.6338L80.3177 69.059C80.5751 68.903 80.8223 68.7255 81.0545 68.5242ZM90.8302 78.9871C90.0741 81.006 87.8158 82.0339 85.7975 81.277C83.7785 80.5209 82.7514 78.2633 83.5076 76.2443C84.0948 74.676 85.5891 73.7064 87.1732 73.7064C87.6274 73.7064 88.0903 73.7862 88.5402 73.9551C89.5177 74.3209 90.2947 75.0469 90.7274 75.9971C91.1601 76.9473 91.1967 78.0096 90.8302 78.9871Z" fill="#042A4F"/>
<path d="M22.7782 29.103C20.7262 29.103 19.0558 30.7727 19.0558 32.8254C19.0558 34.8782 20.7255 36.5478 22.7782 36.5478C24.831 36.5478 26.5006 34.8782 26.5006 32.8254C26.5006 30.7727 24.831 29.103 22.7782 29.103ZM22.7782 35.1096C21.5183 35.1096 20.4933 34.0847 20.4933 32.8247C20.4933 31.5647 21.5183 30.5398 22.7782 30.5398C24.0382 30.5398 25.0631 31.5647 25.0631 32.8247C25.0631 34.0847 24.0382 35.1096 22.7782 35.1096Z" fill="#3A2C60"/>
<path d="M22.7782 17.5793C24.8303 17.5793 26.5006 15.9097 26.5006 13.8569C26.5006 11.8042 24.831 10.1345 22.7782 10.1345C20.7255 10.1345 19.0558 11.8042 19.0558 13.8569C19.0558 15.9097 20.7262 17.5793 22.7782 17.5793ZM22.7782 11.5727C24.0382 11.5727 25.0631 12.5977 25.0631 13.8576C25.0631 15.1176 24.0382 16.1425 22.7782 16.1425C21.5183 16.1425 20.4933 15.1176 20.4933 13.8576C20.4933 12.5977 21.5183 11.5727 22.7782 11.5727Z" fill="#3A2C60"/>
<path d="M16.3303 28.0549C18.3823 28.0549 20.0527 26.3853 20.0527 24.3325C20.0527 22.2798 18.3831 20.6101 16.3303 20.6101C14.2776 20.6101 12.6079 22.2798 12.6079 24.3325C12.6079 26.3853 14.2783 28.0549 16.3303 28.0549ZM16.3303 22.0476C17.5903 22.0476 18.6152 23.0725 18.6152 24.3325C18.6152 25.5925 17.5903 26.6174 16.3303 26.6174C15.0703 26.6174 14.0454 25.5925 14.0454 24.3325C14.0454 23.0725 15.0703 22.0476 16.3303 22.0476Z" fill="#3A2C60"/>
<line x1="0.967036" y1="13.2493" x2="105.967" y2="71.2493" stroke="#0E3B5D" stroke-width="4"/>
</svg>
