<svg width="90" height="90" viewBox="0 0 90 90" fill="none" xmlns="http://www.w3.org/2000/svg">
<path d="M78.75 46.7859V61.8749H53.4375V28.1249C60.5109 28.1249 61.5164 27.8015 63.0703 29.3624C78.6023 44.8874 78.75 44.4304 78.75 46.7859Z" fill="#FEDDC5"/>
<path d="M58.5352 48.5649H78.75C78.75 44.1563 79.868 46.1532 67.5 33.7993H58.5352V48.5649Z" fill="#FFF4EB"/>
<path d="M11.25 61.875H78.75V66.0938C78.75 67.2126 78.3055 68.2857 77.5144 69.0769C76.7232 69.868 75.6501 70.3125 74.5312 70.3125H15.4688C14.3499 70.3125 13.2768 69.868 12.4856 69.0769C11.6945 68.2857 11.25 67.2126 11.25 66.0938V61.875Z" fill="#0E3B5D"/>
<path d="M15.4688 19.6875H49.2188C50.3376 19.6875 51.4107 20.132 52.2019 20.9231C52.993 21.7143 53.4375 22.7874 53.4375 23.9062V61.875H11.25V23.9062C11.25 22.7874 11.6945 21.7143 12.4856 20.9231C13.2768 20.132 14.3499 19.6875 15.4688 19.6875Z" fill="#FFF4EB"/>
<path d="M33.7078 70.3125C33.7078 71.4167 33.3804 72.4961 32.7669 73.4142C32.1535 74.3323 31.2816 75.0478 30.2615 75.4704C29.2413 75.8929 28.1188 76.0035 27.0359 75.7881C25.9529 75.5727 24.9581 75.041 24.1774 74.2602C23.3966 73.4794 22.8649 72.4847 22.6495 71.4017C22.4341 70.3187 22.5446 69.1962 22.9672 68.1761C23.3897 67.156 24.1053 66.2841 25.0234 65.6706C25.9414 65.0572 27.0208 64.7297 28.125 64.7297C29.6057 64.7297 31.0257 65.3179 32.0727 66.3649C33.1196 67.4119 33.7078 68.8319 33.7078 70.3125ZM62.5781 64.7297C61.474 64.7297 60.3946 65.0572 59.4765 65.6706C58.5584 66.2841 57.8428 67.156 57.4203 68.1761C56.9977 69.1962 56.8872 70.3187 57.1026 71.4017C57.318 72.4847 57.8497 73.4794 58.6305 74.2602C59.4113 75.041 60.406 75.5727 61.489 75.7881C62.5719 76.0035 63.6945 75.8929 64.7146 75.4704C65.7347 75.0478 66.6066 74.3323 67.2201 73.4142C67.8335 72.4961 68.1609 71.4167 68.1609 70.3125C68.1609 68.8319 67.5728 67.4119 66.5258 66.3649C65.4788 65.3179 64.0588 64.7297 62.5781 64.7297Z" fill="#FFF4EB"/>
<path d="M18.8367 68.9062H15.4688C14.7228 68.9062 14.0075 68.6099 13.48 68.0825C12.9526 67.555 12.6562 66.8397 12.6562 66.0938V63.2812H25.2773C25.6503 63.2812 26.008 63.1331 26.2717 62.8694C26.5354 62.6056 26.6836 62.248 26.6836 61.875C26.6836 61.502 26.5354 61.1444 26.2717 60.8806C26.008 60.6169 25.6503 60.4688 25.2773 60.4688H12.6562V57.6562C12.6562 57.2833 12.5081 56.9256 12.2444 56.6619C11.9806 56.3982 11.623 56.25 11.25 56.25C10.877 56.25 10.5194 56.3982 10.2556 56.6619C9.99191 56.9256 9.84375 57.2833 9.84375 57.6562V66.0938C9.84375 67.5856 10.4364 69.0163 11.4913 70.0712C12.5462 71.1261 13.9769 71.7188 15.4688 71.7188H18.8367C19.2097 71.7188 19.5674 71.5706 19.8311 71.3069C20.0948 71.0431 20.243 70.6855 20.243 70.3125C20.243 69.9395 20.0948 69.5819 19.8311 69.3181C19.5674 69.0544 19.2097 68.9062 18.8367 68.9062Z" fill="#042A4F"/>
<path d="M39.1219 68.9063H34.9734C34.6251 67.2105 33.6597 65.7043 32.2644 64.6795C30.869 63.6547 29.1429 63.1843 27.4206 63.3593C25.6982 63.5344 24.1021 64.3425 22.9414 65.6271C21.7808 66.9117 21.1382 68.5813 21.1382 70.3126C21.1382 72.0438 21.7808 73.7135 22.9414 74.998C24.1021 76.2826 25.6982 77.0907 27.4206 77.2658C29.1429 77.4409 30.869 76.9704 32.2644 75.9457C33.6597 74.9209 34.6251 73.4147 34.9734 71.7188H39.1219C39.4948 71.7188 39.8525 71.5707 40.1162 71.3069C40.38 71.0432 40.5281 70.6855 40.5281 70.3126C40.5281 69.9396 40.38 69.5819 40.1162 69.3182C39.8525 69.0545 39.4948 68.9063 39.1219 68.9063ZM28.125 74.4891C27.299 74.4891 26.4915 74.2442 25.8046 73.7852C25.1178 73.3263 24.5825 72.674 24.2664 71.9109C23.9502 71.1477 23.8675 70.3079 24.0287 69.4978C24.1898 68.6876 24.5876 67.9434 25.1717 67.3593C25.7558 66.7752 26.5 66.3774 27.3102 66.2163C28.1204 66.0551 28.9601 66.1378 29.7233 66.4539C30.4865 66.77 31.1388 67.3054 31.5977 67.9922C32.0566 68.679 32.3016 69.4865 32.3016 70.3126C32.2906 71.4169 31.847 72.4728 31.0661 73.2537C30.2852 74.0346 29.2293 74.4781 28.125 74.4891Z" fill="#042A4F"/>
<path d="M12.6562 53.4375V23.9062C12.6562 23.1603 12.9526 22.445 13.48 21.9175C14.0075 21.3901 14.7228 21.0938 15.4688 21.0938H49.2188C49.9647 21.0938 50.68 21.3901 51.2075 21.9175C51.7349 22.445 52.0312 23.1603 52.0312 23.9062C52.0312 24.2792 52.1794 24.6369 52.4431 24.9006C52.7069 25.1643 53.0645 25.3125 53.4375 25.3125C53.8105 25.3125 54.1681 25.1643 54.4319 24.9006C54.6956 24.6369 54.8438 24.2792 54.8438 23.9062C54.8438 22.4144 54.2511 20.9837 53.1962 19.9288C52.1413 18.8739 50.7106 18.2813 49.2188 18.2812H15.4688C13.9769 18.2813 12.5462 18.8739 11.4913 19.9288C10.4364 20.9837 9.84375 22.4144 9.84375 23.9062V53.4375C9.84375 53.8105 9.99191 54.1681 10.2556 54.4319C10.5194 54.6956 10.877 54.8438 11.25 54.8438C11.623 54.8438 11.9806 54.6956 12.2444 54.4319C12.5081 54.1681 12.6562 53.8105 12.6562 53.4375Z" fill="#042A4F"/>
<path d="M30.0305 63.2812H45.8297C46.2027 63.2812 46.5603 63.1331 46.8241 62.8694C47.0878 62.6056 47.2359 62.248 47.2359 61.875C47.2359 61.502 47.0878 61.1444 46.8241 60.8806C46.5603 60.6169 46.2027 60.4688 45.8297 60.4688H30.0305C29.6575 60.4688 29.2998 60.6169 29.0361 60.8806C28.7724 61.1444 28.6242 61.502 28.6242 61.875C28.6242 62.248 28.7724 62.6056 29.0361 62.8694C29.2998 63.1331 29.6575 63.2812 30.0305 63.2812Z" fill="#042A4F"/>
<path d="M78.5109 42.8063C62.7047 27.007 63.1055 26.7188 60.0891 26.7188H53.4375C53.0645 26.7188 52.7068 26.8669 52.4431 27.1306C52.1794 27.3944 52.0312 27.752 52.0312 28.125V60.4688H50.1258C49.7528 60.4688 49.3951 60.6169 49.1314 60.8806C48.8677 61.1444 48.7195 61.502 48.7195 61.875C48.7195 62.248 48.8677 62.6056 49.1314 62.8694C49.3951 63.1331 49.7528 63.2812 50.1258 63.2812H77.3437V66.0938C77.3437 66.8397 77.0474 67.555 76.52 68.0825C75.9925 68.6099 75.2772 68.9062 74.5312 68.9062H72.4219C72.0489 68.9062 71.6912 69.0544 71.4275 69.3181C71.1638 69.5819 71.0156 69.9395 71.0156 70.3125C71.0156 70.6855 71.1638 71.0431 71.4275 71.3069C71.6912 71.5706 72.0489 71.7188 72.4219 71.7188H74.5312C76.0231 71.7188 77.4538 71.1261 78.5087 70.0712C79.5636 69.0163 80.1562 67.5856 80.1562 66.0938C80.1562 45.3797 80.6977 45 78.5109 42.8063ZM77.3437 47.1586H59.9414V35.2055H66.9164C77.9133 46.1953 77.3437 45.0492 77.3437 47.1586ZM54.8437 60.4688V29.5312C62.107 29.5312 60.6727 28.9547 64.1039 32.3859H58.5352C58.1622 32.3859 57.8045 32.5341 57.5408 32.7978C57.2771 33.0615 57.1289 33.4192 57.1289 33.7922V48.5578C57.1289 48.9308 57.2771 49.2885 57.5408 49.5522C57.8045 49.8159 58.1622 49.9641 58.5352 49.9641H77.3437V60.4688H54.8437Z" fill="#042A4F"/>
<path d="M62.5781 63.3235C60.9704 63.3308 59.4136 63.8889 58.1675 64.9048C56.9213 65.9207 56.0609 67.333 55.7297 68.9063H43.0734C42.7005 68.9063 42.3428 69.0545 42.0791 69.3182C41.8154 69.5819 41.6672 69.9396 41.6672 70.3126C41.6672 70.6855 41.8154 71.0432 42.0791 71.3069C42.3428 71.5706 42.7005 71.7188 43.0734 71.7188H55.7297C55.9957 73.0137 56.6235 74.2067 57.5402 75.1592C58.4569 76.1116 59.625 76.7846 60.9088 77.0999C62.1926 77.4152 63.5395 77.36 64.7932 76.9405C66.0469 76.5211 67.1559 75.7547 67.9915 74.7304C68.8271 73.706 69.3551 72.4657 69.5141 71.1533C69.6732 69.8409 69.4567 68.5104 68.8899 67.3161C68.3231 66.1217 67.4293 65.1127 66.3121 64.406C65.1948 63.6993 63.9001 63.3239 62.5781 63.3235ZM62.5781 74.4961C61.7524 74.4961 60.9452 74.2514 60.2585 73.7928C59.5718 73.3341 59.0365 72.6823 58.7202 71.9195C58.4038 71.1567 58.3207 70.3173 58.4813 69.5074C58.6419 68.6974 59.039 67.9532 59.6224 67.3688C60.2058 66.7844 60.9493 66.3861 61.759 66.2241C62.5687 66.0622 63.4083 66.1439 64.1716 66.4589C64.9349 66.774 65.5876 67.3082 66.0474 67.9941C66.5072 68.68 66.7533 69.4868 66.7547 70.3126C66.7437 71.4168 66.3001 72.4728 65.5193 73.2537C64.7384 74.0346 63.6824 74.4781 62.5781 74.4891V74.4961Z" fill="#042A4F"/>
<path d="M16.8328 26.543V55.0125C16.8328 55.3855 16.981 55.7431 17.2447 56.0069C17.5084 56.2706 17.8661 56.4187 18.2391 56.4187C18.612 56.4187 18.9697 56.2706 19.2334 56.0069C19.4972 55.7431 19.6453 55.3855 19.6453 55.0125V26.543C19.6453 26.17 19.4972 25.8123 19.2334 25.5486C18.9697 25.2849 18.612 25.1367 18.2391 25.1367C17.8661 25.1367 17.5084 25.2849 17.2447 25.5486C16.981 25.8123 16.8328 26.17 16.8328 26.543Z" fill="#042A4F"/>
<path d="M23.8641 26.543V55.0125C23.8641 55.3855 24.0122 55.7431 24.2759 56.0069C24.5397 56.2706 24.8973 56.4187 25.2703 56.4187C25.6433 56.4187 26.001 56.2706 26.2647 56.0069C26.5284 55.7431 26.6766 55.3855 26.6766 55.0125V26.543C26.6766 26.17 26.5284 25.8123 26.2647 25.5486C26.001 25.2849 25.6433 25.1367 25.2703 25.1367C24.8973 25.1367 24.5397 25.2849 24.2759 25.5486C24.0122 25.8123 23.8641 26.17 23.8641 26.543Z" fill="#042A4F"/>
<path d="M33.7078 55.0125V26.543C33.7078 26.17 33.5597 25.8123 33.2959 25.5486C33.0322 25.2849 32.6745 25.1367 32.3016 25.1367C31.9286 25.1367 31.5709 25.2849 31.3072 25.5486C31.0435 25.8123 30.8953 26.17 30.8953 26.543V55.0125C30.8953 55.3855 31.0435 55.7431 31.3072 56.0069C31.5709 56.2706 31.9286 56.4187 32.3016 56.4187C32.6745 56.4187 33.0322 56.2706 33.2959 56.0069C33.5597 55.7431 33.7078 55.3855 33.7078 55.0125Z" fill="#042A4F"/>
<path d="M40.7391 55.0125V26.543C40.7391 26.17 40.5909 25.8123 40.3272 25.5486C40.0635 25.2849 39.7058 25.1367 39.3328 25.1367C38.9598 25.1367 38.6022 25.2849 38.3384 25.5486C38.0747 25.8123 37.9266 26.17 37.9266 26.543V55.0125C37.9266 55.3855 38.0747 55.7431 38.3384 56.0069C38.6022 56.2706 38.9598 56.4187 39.3328 56.4187C39.7058 56.4187 40.0635 56.2706 40.3272 56.0069C40.5909 55.7431 40.7391 55.3855 40.7391 55.0125Z" fill="#042A4F"/>
<path d="M47.7703 55.0125V26.543C47.7703 26.17 47.6222 25.8123 47.3584 25.5486C47.0947 25.2849 46.737 25.1367 46.3641 25.1367C45.9911 25.1367 45.6334 25.2849 45.3697 25.5486C45.106 25.8123 44.9578 26.17 44.9578 26.543V55.0125C44.9578 55.3855 45.106 55.7431 45.3697 56.0069C45.6334 56.2706 45.9911 56.4187 46.3641 56.4187C46.737 56.4187 47.0947 56.2706 47.3584 56.0069C47.6222 55.7431 47.7703 55.3855 47.7703 55.0125Z" fill="#042A4F"/>
</svg>
