<svg width="111" height="94" viewBox="0 0 111 94" fill="none" xmlns="http://www.w3.org/2000/svg">
<g clip-path="url(#clip0)">
<path d="M73.3712 38.7836L69.4636 28.0472C68.1708 24.4951 64.229 22.6568 60.6771 23.95L53.4924 26.5652C53.504 26.4949 53.5161 26.4247 53.5261 26.3539C53.9973 23.0408 52.6099 19.8424 49.8156 17.7982C47.1737 15.8655 43.7927 15.4642 40.772 16.7244C37.7511 17.9847 35.6579 20.6696 35.1743 23.8955L34.1478 30.5159L28.8399 25.8239C26.3873 23.6559 23.058 22.9441 19.9339 23.9209C13.0554 26.0705 11.1732 34.8833 16.5069 39.6702C16.6027 39.7561 16.7005 39.839 16.7992 39.9207L9.14214 42.7077C5.58232 44.0033 3.74902 47.9334 5.04516 51.4939L8.95293 62.2304L13.8191 60.4702V87.145C13.8191 90.9249 16.8638 94.0003 20.6439 94.0003C21.3127 94.0003 64.9293 94.0003 66.3458 94.0003C70.1258 94.0003 73.2012 90.9251 73.2012 87.145V52.5638C71.7329 52.5638 35.5112 52.5638 35.5112 52.5638L73.3712 38.7836ZM62.2402 28.2446C63.4239 27.8138 64.7382 28.4263 65.1688 29.6104L67.5137 36.0522L46.0409 43.8678L42.9148 35.2786L62.2402 28.2446ZM39.6924 24.5841C39.9381 22.9427 40.9997 21.5814 42.5313 20.9423C44.049 20.3092 45.765 20.4976 47.1172 21.4868C50.1875 23.7329 49.4514 28.0356 45.9498 29.3105C45.3628 29.5241 41.5364 30.917 41.3514 30.9842L38.5414 32.0069L39.6924 24.5841ZM38.6199 36.8417L41.746 45.4306C40.244 45.9774 38.9534 46.4471 37.4514 46.9938L34.3253 38.4047L38.6199 36.8417ZM21.2969 28.2827C22.8613 27.794 24.5534 28.1343 25.813 29.2476L31.7361 34.4837C30.0177 35.1092 25.9543 36.5882 24.3063 37.1878C22.6473 37.7912 20.8729 37.4477 19.5593 36.2685C16.8107 33.8018 17.8583 29.3573 21.2969 28.2827ZM11.6841 56.3726L9.33943 49.9307C8.90738 48.7444 9.51812 47.4338 10.7052 47.0016L30.0308 39.9678L33.1568 48.5567L11.6841 56.3726ZM50.3499 57.134H68.6612V87.145C68.6612 88.405 67.6056 89.4301 66.3455 89.4301H50.3499V57.134ZM41.2096 57.134H45.8102V89.43H41.2096V57.134ZM36.6697 57.134V89.43H20.6436C19.3836 89.43 18.3585 88.4048 18.3585 87.1448V58.8067L22.9541 57.134H36.6697Z" fill="white"/>
</g>
<path d="M89.1667 33C89.1667 35.55 87.0556 35.85 86 36C88.5 36.6 88.7778 38 89.1667 39C89.6667 37.2 91.0556 36.2 92 36C89.5 35.55 89.3333 34 89.1667 33Z" fill="white"/>
<path d="M78.2778 11C78.2778 15.25 74.7593 15.75 73 16C77.1667 17 77.6296 19.3333 78.2778 21C79.1111 18 81.4259 16.3333 83 16C78.8333 15.25 78.5556 12.6667 78.2778 11Z" fill="white"/>
<path d="M103.444 0C103.444 6.8 97.8148 7.6 95 8C101.667 9.6 102.407 13.3333 103.444 16C104.778 11.2 108.481 8.53333 111 8C104.333 6.8 103.889 2.66667 103.444 0Z" fill="white"/>
<defs>
<clipPath id="clip0">
<rect width="78" height="78" fill="white" transform="translate(0 16)"/>
</clipPath>
</defs>
</svg>
