<?xml version="1.0" encoding="utf-8"?>
<!-- Generator: Adobe Illustrator 19.0.0, SVG Export Plug-In . SVG Version: 6.00 Build 0)  -->
<svg version="1.1" id="Layer_1" xmlns="http://www.w3.org/2000/svg" xmlns:xlink="http://www.w3.org/1999/xlink" x="0px" y="0px"
	 viewBox="0 0 250 77" style="enable-background:new 0 0 250 77;" xml:space="preserve">
<style type="text/css">
	.st0{fill:#10385E;}
	.st1{fill:#10385E;stroke:#10385E;stroke-width:0.25;stroke-miterlimit:10;}
</style>
<g id="XMLID_1378_">
	<g id="XMLID_1136_">
		<g id="XMLID_1213_">
			<g id="XMLID_1214_">
				<path id="XMLID_1305_" class="st0" d="M10.4,34.2c0-1.5-0.6-2.3-1.8-2.4l-0.5-0.1c-0.2,0-0.2-0.1-0.2-0.3c0-0.2,0.1-0.3,0.3-0.3
					l0.3,0l0.8,0c0.7,0,1.1,0,1.3,0c0.5,0,1.5-0.1,2.9-0.2c0.9-0.1,1.6-0.1,2.2-0.1c1.5,0,2.8,0.3,3.7,1c0.9,0.7,1.4,1.5,1.4,2.6
					c0,1.3-0.6,2.2-1.7,2.7c-0.3,0.1-0.4,0.2-0.4,0.3c0,0.1,0.1,0.2,0.4,0.3c0.9,0.2,1.6,0.6,2.1,1.2c0.5,0.6,0.8,1.4,0.8,2.4
					c0,1.4-0.5,2.6-1.4,3.4c-1,0.8-2.3,1.3-3.9,1.3l-2.2-0.1l-1.7,0c-1.1,0-2,0-2.8,0.1c-0.2,0-0.5,0-0.7,0c-0.2,0-0.3-0.1-0.3-0.3
					c0-0.2,0.1-0.3,0.3-0.3c0.9-0.1,1.3-0.9,1.3-2.2V34.2z M12.9,33.3v3.1c0,0.4,0.1,0.7,0.3,0.9c0.2,0.2,0.6,0.3,1.1,0.3l1.5,0
					l0.7,0c1.2-0.2,1.9-0.9,1.9-2.2c0-1.1-0.3-1.9-1-2.6c-0.7-0.7-1.6-1-2.7-1c-0.7,0-1.1,0.1-1.3,0.3S12.9,32.7,12.9,33.3z
					 M12.9,40.5v1.8l0,0.4l0.1,0.9c0.1,1,0.9,1.6,2.5,1.6c1.5,0,2.6-0.4,3.2-1.1c0.5-0.6,0.7-1.4,0.7-2.2c0-1.7-0.8-2.7-2.3-3.1
					c-0.9-0.2-1.9-0.3-3-0.3c-0.5,0-0.9,0.1-1,0.4C13,39,12.9,39.6,12.9,40.5z"/>
				<path id="XMLID_1297_" class="st0" d="M36.4,32.3l4.9,11.3c0.2,0.6,0.5,1,0.9,1.3c0.3,0.3,0.8,0.5,1.3,0.6
					c0.1,0,0.2,0.1,0.2,0.3c0,0.2-0.1,0.3-0.2,0.3c-0.1,0-0.2,0-0.4-0.1c-0.6-0.1-1.5-0.2-2.7-0.2c-1.2,0-2.1,0.1-2.5,0.2
					c-0.1,0-0.2,0-0.3,0c-0.2,0-0.3-0.1-0.3-0.3c0-0.1,0.1-0.2,0.2-0.2c0.3-0.1,0.6-0.3,0.9-0.5c0.2-0.3,0.3-0.5,0.3-0.8
					c0-0.4-0.3-1.3-0.9-2.7c-0.2-0.4-0.4-0.7-0.6-0.7c-0.2-0.1-1.1-0.1-2.5-0.1h-1.5l-1,0.2c-0.3,0.1-0.6,0.6-0.9,1.4l-0.3,0.8
					c-0.1,0.2-0.2,0.5-0.2,0.7c0,0.9,0.6,1.4,1.9,1.6c0.3,0,0.4,0.1,0.4,0.3c0,0.2-0.1,0.3-0.4,0.3c-0.1,0-0.3,0-0.6-0.1
					c-0.5-0.1-0.9-0.1-1.3-0.1c-0.3,0-0.9,0-1.7,0.1C28.6,46,28.2,46,28.1,46c-0.2,0-0.3-0.1-0.3-0.3c0-0.1,0.1-0.3,0.3-0.3
					c0.4-0.1,0.7-0.3,0.9-0.7c0.2-0.3,0.6-1,1-2.1l3-6.8c0.2-0.5,0.4-0.9,0.5-1.1l1-2.1l0.5-1v0c0.2-0.6,0.4-0.8,0.5-0.8
					c0.1,0,0.3,0.3,0.6,0.9L36.4,32.3z M36.8,39.1l-1.4-3.3c-0.3-0.8-0.6-1.2-0.7-1.2c-0.1,0-0.2,0.3-0.5,0.8L34,35.8l-1.3,2.9
					L32.6,39c-0.1,0.1-0.1,0.2-0.1,0.3c0,0.2,0.3,0.4,0.8,0.4h3.2c0.3,0,0.4-0.1,0.4-0.2c0,0,0-0.1-0.1-0.2L36.8,39.1z"/>
				<path id="XMLID_1240_" class="st0" d="M53.9,41.7c0,1.4,0.1,2.3,0.4,2.8c0.3,0.5,0.8,0.8,1.5,0.8c0.3,0,0.5,0.1,0.5,0.4
					c0,0.2-0.1,0.3-0.4,0.3c-0.1,0-0.2,0-0.4,0c-0.6-0.1-1.2-0.1-1.8-0.1c-0.5,0-0.9,0-1.3,0L51.4,46l-0.7,0.1c-0.2,0-0.3,0-0.4,0
					c-0.3,0-0.4-0.1-0.4-0.3c0-0.2,0.1-0.3,0.2-0.3c0.5-0.2,0.8-0.4,1-0.6c0.2-0.3,0.3-0.6,0.3-1.2v-1l0-0.4v-7.8
					c0-0.9-0.1-1.4-0.3-1.7c-0.4-0.5-0.9-0.8-1.7-0.9c-0.3,0-0.4-0.2-0.4-0.4c0-0.2,0.1-0.3,0.3-0.3c0.1,0,0.2,0,0.4,0
					c0.6,0.1,1.2,0.1,1.8,0.1c0.7,0,1.6,0,2.7-0.1c1.2-0.1,2.1-0.1,2.5-0.1c1.4,0,2.5,0.4,3.4,1.1c0.9,0.8,1.4,1.7,1.4,2.8
					c0,0.7-0.2,1.4-0.6,2c-0.4,0.6-1,1-1.7,1.3c-0.1,0.1-0.2,0.1-0.2,0.2c0,0.1,0,0.2,0.1,0.3c0.1,0.1,0.2,0.3,0.3,0.5l1,1.7l1.1,2
					c0.4,0.7,0.7,1.1,1,1.4c0.3,0.3,0.7,0.4,1.1,0.4c0.2,0,0.3,0,0.5,0c0.1,0,0.2,0,0.2,0c0.1,0,0.2,0.1,0.2,0.3
					c0,0.2-0.3,0.4-0.9,0.7c-0.6,0.3-1.1,0.4-1.6,0.4c-0.7,0-1.4-0.4-2.1-1.1c-0.6-0.7-1.4-2.1-2.4-4.1c-0.4-0.8-0.7-1.3-1-1.5
					c-0.3-0.2-0.7-0.3-1.2-0.3h-0.7L54,39c-0.1,0.1-0.2,0.2-0.2,0.5V41.7z M53.9,33.2V37c0,0.5,0.1,0.8,0.2,0.9
					c0.1,0.1,0.4,0.2,0.9,0.2c1.3,0,2.1,0,2.4-0.1c0.3,0,0.6-0.2,0.9-0.4c0.5-0.5,0.8-1.1,0.8-2c0-1.1-0.4-2-1.1-2.7
					c-0.7-0.7-1.6-1.1-2.7-1.1c-0.5,0-0.8,0.1-1,0.3C54,32.3,53.9,32.7,53.9,33.2z"/>
				<path id="XMLID_1237_" class="st0" d="M74.5,33.6v2.4c0,0.7,0,1.1,0.1,1.3c0.1,0.2,0.3,0.3,0.7,0.3l0.3,0l0.5,0h0.9
					c0.7,0,1.3-0.4,1.7-1.2l0.2-0.5c0.1-0.1,0.2-0.2,0.3-0.2c0.2,0,0.2,0.1,0.2,0.3c0,0.1,0,0.2,0,0.5c0,0.2,0,0.3,0,0.5
					c0,0.2,0,0.8,0.1,1.6c0,0.6,0.1,1,0.1,1.5l0,0.6c0,0.1,0,0.2,0,0.2c0,0-0.1,0.1-0.2,0.1c-0.2,0-0.3-0.1-0.3-0.4
					c-0.1-0.6-0.3-1.1-0.7-1.4c-0.2-0.2-0.4-0.3-0.7-0.3c-0.3-0.1-0.8-0.1-1.5-0.1h-0.7c-0.3,0-0.6,0.1-0.7,0.2
					c-0.1,0.1-0.2,0.3-0.3,0.6c0,0.4-0.1,0.9-0.1,1.7v1c0,1,0.1,1.8,0.2,2.2c0.1,0.3,0.3,0.5,0.4,0.7C75.4,45,75.6,45,76,45
					c2.9,0,4.9-0.9,5.8-2.7c0.1-0.1,0.1-0.1,0.1-0.1c0.1,0,0.1,0,0.2,0.1c0.1,0.1,0.1,0.1,0.1,0.2c0,0.7-0.2,1.4-0.6,2.1
					c-0.3,0.6-0.7,1-1.2,1.2c-0.5,0.2-1.1,0.4-1.9,0.4c-0.5,0-1,0-1.5-0.1l-1.3-0.1c-0.5,0-1.1-0.1-1.9-0.1c-0.5,0-1.3,0-2.4,0.1
					c-0.3,0-0.5,0-0.6,0c-0.2,0-0.3-0.1-0.3-0.2c0-0.1,0.1-0.2,0.2-0.3c0.4-0.2,0.7-0.3,0.8-0.5c0.1-0.2,0.3-0.5,0.4-0.9
					c0.1-0.4,0.1-0.9,0.1-1.6v-8.6c0-0.8-0.1-1.4-0.4-1.6c-0.3-0.3-0.8-0.5-1.6-0.6c-0.2,0-0.3-0.1-0.3-0.3c0-0.2,0.1-0.3,0.4-0.3
					c0.1,0,0.2,0,0.3,0c0.1,0,0.3,0,0.5,0l1.1,0l4.1,0c2.4,0,3.8,0,4.4-0.1c0.1,0,0.1,0,0.2,0c0.2,0,0.3,0.1,0.3,0.4
					c0,0.2,0,0.5,0.1,0.9c0.1,0.6,0.1,1.1,0.1,1.4c0,0.5-0.1,0.8-0.4,0.8c-0.1,0-0.2-0.2-0.2-0.5c0-0.7-0.3-1.2-0.8-1.6
					c-0.5-0.3-1.4-0.5-2.5-0.5h-1.3L75.1,32c-0.4,0.1-0.6,0.5-0.6,1.1L74.5,33.6z"/>
				<path id="XMLID_1232_" class="st0" d="M107,32.3l4.9,11.3c0.2,0.6,0.5,1,0.9,1.3c0.3,0.3,0.8,0.5,1.3,0.6c0.1,0,0.2,0.1,0.2,0.3
					c0,0.2-0.1,0.3-0.2,0.3c-0.1,0-0.2,0-0.4-0.1c-0.6-0.1-1.5-0.2-2.7-0.2c-1.2,0-2.1,0.1-2.5,0.2c-0.1,0-0.2,0-0.3,0
					c-0.2,0-0.3-0.1-0.3-0.3c0-0.1,0.1-0.2,0.2-0.2c0.3-0.1,0.6-0.3,0.9-0.5c0.2-0.3,0.3-0.5,0.3-0.8c0-0.4-0.3-1.3-0.9-2.7
					c-0.2-0.4-0.4-0.7-0.6-0.7c-0.2-0.1-1.1-0.1-2.5-0.1h-1.5l-1,0.2c-0.3,0.1-0.6,0.6-0.9,1.4l-0.3,0.8c-0.1,0.2-0.2,0.5-0.2,0.7
					c0,0.9,0.6,1.4,1.9,1.6c0.3,0,0.4,0.1,0.4,0.3c0,0.2-0.1,0.3-0.4,0.3c-0.1,0-0.3,0-0.6-0.1c-0.5-0.1-0.9-0.1-1.3-0.1
					c-0.3,0-0.9,0-1.7,0.1C99.2,46,98.9,46,98.7,46c-0.2,0-0.3-0.1-0.3-0.3c0-0.1,0.1-0.3,0.3-0.3c0.4-0.1,0.7-0.3,0.9-0.7
					c0.2-0.3,0.6-1,1-2.1l3-6.8c0.2-0.5,0.4-0.9,0.5-1.1l1-2.1l0.5-1v0c0.2-0.6,0.4-0.8,0.5-0.8c0.1,0,0.3,0.3,0.6,0.9L107,32.3z
					 M107.4,39.1l-1.4-3.3c-0.3-0.8-0.6-1.2-0.7-1.2c-0.1,0-0.2,0.3-0.5,0.8l-0.2,0.5l-1.3,2.9l-0.1,0.3c-0.1,0.1-0.1,0.2-0.1,0.3
					c0,0.2,0.3,0.4,0.8,0.4h3.2c0.3,0,0.4-0.1,0.4-0.2c0,0,0-0.1-0.1-0.2L107.4,39.1z"/>
				<path id="XMLID_1230_" class="st0" d="M125.8,33.5l5.7,6.4l0.4,0.4c0.5,0.6,0.8,0.8,1,0.8c0.2,0,0.2-0.2,0.2-0.7
					c0.1-1.6,0.1-3.1,0.1-4.6c0-1.7-0.2-2.8-0.5-3.4c-0.3-0.6-1-0.9-2-1c-0.2,0-0.4-0.1-0.4-0.3c0-0.2,0.1-0.3,0.3-0.3
					c0.3,0,0.7,0,1.3,0.1c0.4,0,0.7,0.1,0.9,0.1c0.5,0,1.3-0.1,2.4-0.2c0.1,0,0.2,0,0.3,0c0.2,0,0.3,0.1,0.3,0.3
					c0,0.2-0.1,0.3-0.3,0.3c-0.9,0.2-1.4,1-1.4,2.5v0.5l-0.2,6.8l0,0.9l0,1.2l0,0.8l0,1.4c0,0.2-0.1,0.3-0.2,0.3
					c-0.1,0-0.3-0.1-0.4-0.2l-9.9-11c-0.2-0.2-0.3-0.3-0.4-0.3c-0.2,0-0.3,0.2-0.3,0.5l0,0.3v4.2c0,2.2,0.1,3.8,0.3,4.5
					c0.2,0.8,0.9,1.3,2.1,1.4c0.2,0,0.3,0.1,0.3,0.3c0,0.2-0.1,0.3-0.3,0.3c-0.1,0-0.2,0-0.4,0c-0.6-0.1-1.3-0.2-2-0.2
					c-0.7,0-1.4,0.1-2,0.2c-0.3,0-0.4,0.1-0.6,0.1c-0.2,0-0.3-0.1-0.3-0.3c0-0.1,0.1-0.3,0.3-0.3c0.5-0.2,0.9-0.5,1.2-0.9
					c0.2-0.5,0.4-1.2,0.4-2l0.1-2.6v-4.7c0-2.2-0.8-3.4-2.5-3.5c-0.2,0-0.3-0.1-0.3-0.3c0-0.2,0.1-0.3,0.4-0.3l0.8,0l0.5,0
					c0.6,0,1.2,0,1.8-0.1c0.2,0,0.4,0,0.6,0c0.2,0,0.4,0,0.5,0.1c0.1,0.1,0.4,0.4,0.8,0.9l0.7,0.9C125.6,33.3,125.8,33.5,125.8,33.5
					z"/>
				<path id="XMLID_1225_" class="st0" d="M149.7,32.3l4.9,11.3c0.2,0.6,0.5,1,0.9,1.3c0.3,0.3,0.8,0.5,1.3,0.6
					c0.1,0,0.2,0.1,0.2,0.3c0,0.2-0.1,0.3-0.3,0.3c-0.1,0-0.2,0-0.4-0.1c-0.6-0.1-1.5-0.2-2.7-0.2c-1.2,0-2.1,0.1-2.5,0.2
					c-0.1,0-0.2,0-0.3,0c-0.2,0-0.3-0.1-0.3-0.3c0-0.1,0.1-0.2,0.2-0.2c0.3-0.1,0.6-0.3,0.9-0.5c0.2-0.3,0.3-0.5,0.3-0.8
					c0-0.4-0.3-1.3-0.9-2.7c-0.2-0.4-0.4-0.7-0.6-0.7c-0.2-0.1-1.1-0.1-2.5-0.1h-1.5l-1,0.2c-0.3,0.1-0.6,0.6-0.9,1.4l-0.3,0.8
					c-0.1,0.2-0.2,0.5-0.2,0.7c0,0.9,0.6,1.4,1.9,1.6c0.3,0,0.4,0.1,0.4,0.3c0,0.2-0.1,0.3-0.4,0.3c-0.1,0-0.3,0-0.6-0.1
					c-0.5-0.1-0.9-0.1-1.3-0.1c-0.3,0-0.9,0-1.7,0.1c-0.6,0.1-0.9,0.1-1.1,0.1c-0.2,0-0.3-0.1-0.3-0.3c0-0.1,0.1-0.3,0.3-0.3
					c0.4-0.1,0.7-0.3,0.9-0.7c0.2-0.3,0.6-1,1-2.1l3-6.8c0.2-0.5,0.4-0.9,0.5-1.1l1-2.1l0.5-1v0c0.2-0.6,0.4-0.8,0.5-0.8
					c0.1,0,0.3,0.3,0.6,0.9L149.7,32.3z M150.1,39.1l-1.4-3.3c-0.3-0.8-0.6-1.2-0.7-1.2c-0.1,0-0.2,0.3-0.5,0.8l-0.2,0.5l-1.3,2.9
					l-0.1,0.3c-0.1,0.1-0.1,0.2-0.1,0.3c0,0.2,0.3,0.4,0.8,0.4h3.2c0.3,0,0.4-0.1,0.4-0.2c0,0,0-0.1-0.1-0.2L150.1,39.1z"/>
				<path id="XMLID_1222_" class="st0" d="M169.6,33.7v8.2c0,1.2,0.2,2.1,0.5,2.6c0.4,0.5,1,0.8,1.9,0.9c0.3,0,0.4,0.2,0.4,0.4
					c0,0.2-0.1,0.3-0.3,0.3c-0.1,0-0.1,0-0.3,0l-0.8,0l-1.4-0.1c-0.1,0-0.3,0-0.4,0c-0.4,0-0.8,0-1.1,0l-2.4,0.1c-0.3,0-0.4,0-0.5,0
					c-0.2,0-0.3-0.1-0.3-0.3c0-0.2,0-0.3,0.1-0.3c0.1,0,0.2-0.1,0.4-0.1c0.6,0,1-0.2,1.3-0.6c0.3-0.4,0.5-0.9,0.5-1.5l0-0.5v-9.6
					c0-0.6-0.3-0.9-0.9-0.9c-1.4,0-2.4,0.1-3,0.3c-0.4,0.2-0.6,0.3-0.8,0.5c-0.1,0.2-0.3,0.7-0.5,1.5l-0.1,0.3
					c-0.1,0.3-0.2,0.4-0.4,0.4c-0.2,0-0.4-0.1-0.3-0.3c0-0.2,0-0.5,0.1-0.8l0.1-0.9l0.1-1l0.1-0.7c0-0.3,0.2-0.4,0.5-0.4
					c0.1,0,0.2,0,0.4,0c0.3,0,0.7,0,1.2,0l2.2,0l2.6,0c1.7,0,3.5,0,5.4-0.1c0.4,0,0.6,0,0.7,0c0.4,0,0.6,0.2,0.6,0.5l0.1,0.8
					c0,0.1,0,0.4,0.1,0.9c0.1,0.4,0.1,0.7,0.1,0.9c0,0.2-0.1,0.4-0.3,0.4c-0.2,0-0.3-0.1-0.3-0.4c-0.2-0.7-0.4-1.2-0.9-1.5
					c-0.4-0.3-1.1-0.4-1.9-0.4c-1.1,0-1.8,0.1-2.1,0.3C169.7,32.6,169.6,33,169.6,33.7z"/>
				<path id="XMLID_1219_" class="st0" d="M189.5,30.8c2.3,0,4.1,0.7,5.5,2c1.4,1.3,2.1,3,2.1,5.2c0,2.3-0.7,4.3-2.1,5.9
					c-1.4,1.6-3.3,2.4-5.8,2.4c-2.3,0-4.2-0.7-5.6-2.1c-1.4-1.4-2.1-3.2-2.1-5.5c0-1,0.2-2,0.5-2.9c0.4-1,0.8-1.8,1.4-2.4
					c0.7-0.8,1.6-1.4,2.7-1.8C187.2,31,188.3,30.8,189.5,30.8z M188.8,31.6c-1.5,0-2.6,0.5-3.4,1.6c-0.8,1.1-1.2,2.6-1.2,4.5
					c0,2.3,0.5,4.1,1.5,5.5c1,1.4,2.4,2.1,4,2.1c1.5,0,2.7-0.6,3.6-1.8c0.9-1.2,1.3-2.7,1.3-4.7c0-1.1-0.2-2.2-0.6-3.3
					c-0.4-1.1-1-1.9-1.7-2.6C191.3,32.1,190.1,31.6,188.8,31.6z"/>
				<path id="XMLID_1217_" class="st0" d="M208.1,31.7l4.4,9.7c0.2,0.4,0.4,0.6,0.5,0.6c0.1,0,0.3-0.2,0.4-0.4l4.1-8.7
					c0.4-0.8,0.7-1.3,0.8-1.6c0.2-0.2,0.4-0.3,0.7-0.3c0.1,0,0.3,0,0.5,0c0.2,0,0.4,0,0.7,0c0.3,0,0.7,0,1.1-0.1c0.2,0,0.4,0,0.5,0
					c0.3,0,0.4,0.1,0.4,0.3c0,0.2-0.1,0.3-0.3,0.3c-0.7,0.1-1.2,0.3-1.4,0.7c-0.3,0.4-0.4,1.1-0.4,2l0,0.7l0.3,6.7l0,0.4
					c0,1,0.2,1.7,0.5,2.2c0.4,0.5,0.9,0.8,1.7,0.9c0.2,0,0.3,0.1,0.3,0.3c0,0.2-0.2,0.3-0.7,0.3c-0.1,0-0.4,0-0.7-0.1
					c-0.9-0.1-1.5-0.1-1.9-0.1c-0.8,0-1.4,0-1.9,0.1c-0.5,0.1-0.8,0.1-1,0.1c-0.2,0-0.3-0.1-0.3-0.3c0-0.1,0.1-0.2,0.3-0.3
					c0.4-0.1,0.7-0.3,0.9-0.6c0.2-0.3,0.3-0.6,0.3-1.1c0-0.2,0-0.4,0-0.5l-0.3-7.2c0-0.2-0.1-0.3-0.1-0.3c-0.1,0-0.3,0.2-0.4,0.6
					l-4.1,8.7l-0.2,0.3c-0.2,0.4-0.4,0.7-0.5,0.7c-0.2,0-0.4-0.4-0.8-1.2l-0.6-1.1l-3.5-7.8l-0.1-0.2c0-0.1-0.1-0.1-0.1-0.1
					c-0.1,0-0.2,0.1-0.2,0.4l0,0.3l-0.1,5.5l0,0.4l0.1,1c0.2,1.1,0.8,1.7,1.7,2c0.3,0.1,0.5,0.2,0.5,0.4c0,0.2-0.1,0.3-0.4,0.3
					c-0.2,0-0.4,0-0.7-0.1l-0.8-0.1c-0.2,0-0.5,0-0.8,0c-0.7,0-1.2,0-1.5,0.1c-0.2,0-0.4,0.1-0.5,0.1c-0.2,0-0.3-0.1-0.3-0.3
					c0-0.1,0.1-0.2,0.3-0.3c0.6-0.2,1-0.5,1.2-1c0.3-0.5,0.4-1.1,0.4-2l0.3-7.1l0-0.7c0-0.9-0.2-1.5-0.6-2c-0.4-0.5-1-0.7-1.7-0.7
					c-0.3,0-0.4-0.1-0.4-0.3c0-0.2,0.2-0.3,0.5-0.3c0.1,0,0.1,0,0.2,0l0.6,0c0.1,0,0.3,0,0.4,0c0.3,0,0.7,0,1-0.1
					c0.5-0.1,0.8-0.1,1-0.1C207.6,31,207.9,31.3,208.1,31.7z"/>
				<path id="XMLID_1215_" class="st0" d="M236.3,40.1v3.2l0.1,0.7c0.1,0.8,0.8,1.3,2.2,1.3c0.2,0,0.3,0.1,0.3,0.3
					c0,0.2-0.2,0.3-0.5,0.3c-0.2,0-0.4,0-0.6,0l-1.5-0.1c-0.3,0-0.7,0-1.3,0c-1.4,0-2.3,0-2.7,0.1c-0.3,0.1-0.5,0.1-0.7,0.1
					c-0.2,0-0.2-0.1-0.2-0.4c0-0.1,0.1-0.2,0.3-0.2c0.8-0.1,1.4-0.4,1.6-0.8c0.3-0.4,0.4-1.1,0.4-2v-2.1c0-0.5-0.2-1-0.5-1.5
					c-0.4-0.6-0.8-1.4-1.2-2.2l-1.7-3.1c-0.7-1.2-1.4-1.9-2.3-2c-0.3,0-0.4-0.1-0.4-0.3c0-0.2,0.1-0.3,0.3-0.3c0.2,0,0.5,0,0.8,0.1
					c0.8,0.1,1.5,0.1,2.1,0.1c0.6,0,1.2,0,1.8-0.1c0.4,0,0.7-0.1,0.9-0.1c0.3,0,0.5,0.1,0.5,0.3c0,0.2-0.1,0.3-0.4,0.3
					c-0.6,0.1-0.8,0.3-0.8,0.7c0,0.3,0.3,1,0.8,2l0.8,1.6c0.3,0.7,0.6,1.1,0.6,1.3c0.2,0.5,0.5,0.8,0.7,0.8c0.2,0,0.5-0.4,0.9-1.1
					c0.1-0.2,0.3-0.6,0.7-1.3c0.8-1.4,1.2-2.3,1.2-2.7c0-0.3-0.2-0.6-0.5-0.9c-0.4-0.3-0.8-0.4-1.2-0.5c-0.2,0-0.3-0.1-0.3-0.3
					c0-0.2,0.1-0.3,0.3-0.3c0.2,0,0.4,0,0.6,0l0.7,0.1c0.3,0,0.6,0.1,1.1,0.1c0.2,0,0.5,0,0.8,0l0.9-0.1c0.2,0,0.5,0,0.9,0
					c0.2,0,0.3,0.1,0.3,0.3c0,0.2-0.1,0.3-0.4,0.3c-0.5,0.1-1,0.4-1.3,0.7c-0.3,0.4-0.8,1-1.3,2c-0.9,1.8-1.8,3.3-2.5,4.5
					c-0.2,0.2-0.2,0.4-0.3,0.5C236.3,39.5,236.3,39.8,236.3,40.1z"/>
			</g>
		</g>
		<g id="XMLID_1141_">
			<g id="XMLID_1191_">
				<path id="XMLID_1192_" class="st1" d="M66,69.3V17.9h51.4v51.4 M117.3,69.3V18H66.1v51.2H117.3z"/>
			</g>
			<g id="XMLID_1185_">
				<path id="XMLID_1186_" class="st1" d="M91.7,69.3c-4.2,0-8.2-0.8-12-2.4c-3.7-1.6-7-3.8-9.8-6.6c-2.8-2.8-5.1-6.1-6.6-9.8
					c-1.6-3.8-2.4-7.8-2.4-12c0-4.2,0.8-8.2,2.4-12c1.6-3.7,3.8-7,6.6-9.8c2.8-2.8,6.1-5.1,9.8-6.6c3.8-1.6,7.8-2.4,12-2.4
					c4.2,0,8.2,0.8,12,2.4c3.7,1.6,7,3.8,9.8,6.6c2.8,2.8,5.1,6.1,6.6,9.8c1.6,3.8,2.4,7.8,2.4,12c0,4.2-0.8,8.2-2.4,12
					c-1.6,3.7-3.8,7-6.6,9.8c-2.8,2.8-6.1,5.1-9.8,6.6C99.9,68.5,95.9,69.3,91.7,69.3z M91.7,7.7c-4.2,0-8.2,0.8-12,2.4
					c-3.7,1.5-7,3.8-9.8,6.6c-2.8,2.8-5,6.1-6.6,9.8c-1.6,3.8-2.4,7.8-2.4,12c0,4.2,0.8,8.2,2.4,12c1.5,3.7,3.8,7,6.6,9.8
					c2.8,2.8,6.1,5,9.8,6.6c3.8,1.6,7.8,2.4,12,2.4c4.2,0,8.2-0.8,12-2.4c3.7-1.5,7-3.8,9.8-6.6c2.8-2.8,5-6.1,6.6-9.8
					c1.6-3.8,2.4-7.8,2.4-12c0-4.2-0.8-8.2-2.4-12c-1.5-3.7-3.8-7-6.6-9.8c-2.8-2.8-6.1-5-9.8-6.6C99.9,8.6,95.8,7.7,91.7,7.7z"/>
			</g>
			<g id="XMLID_1183_">
				<rect id="XMLID_1184_" x="91.7" y="18" class="st1" width="0.1" height="51.3"/>
			</g>
			<g id="XMLID_1171_">
				<rect id="XMLID_1178_" x="66" y="26.5" class="st1" width="51.3" height="0.1"/>
			</g>
			<g id="XMLID_1169_">
				
					<rect id="XMLID_1170_" x="103.1" y="10" transform="matrix(0.3511 0.9363 -0.9363 0.3511 87.7935 -82.1445)" class="st1" width="0.1" height="24.5"/>
			</g>
			<g id="XMLID_1166_">
				
					<rect id="XMLID_1167_" x="68" y="22.2" transform="matrix(0.9361 0.3516 -0.3516 0.9361 12.9527 -26.7808)" class="st1" width="24.5" height="0.1"/>
			</g>
			<g id="XMLID_1163_">
				
					<rect id="XMLID_1164_" x="85.5" y="54.8" transform="matrix(0.5247 0.8513 -0.8513 0.5247 93.55 -57.8606)" class="st1" width="26.3" height="0.1"/>
			</g>
			<g id="XMLID_1145_">
				
					<rect id="XMLID_1162_" x="84.8" y="41.7" transform="matrix(0.852 0.5235 -0.5235 0.852 41.2576 -36.2772)" class="st1" width="0.1" height="26.3"/>
			</g>
		</g>
	</g>
	<line id="XMLID_1379_" class="st1" x1="66.1" y1="69.3" x2="117.3" y2="69.3"/>
</g>
</svg>
