<svg width="158" height="158" viewBox="0 0 158 158" fill="none" xmlns="http://www.w3.org/2000/svg">
<path d="M107.638 134.629H39.1708C36.8667 134.629 34.8917 132.654 34.8917 130.35V37.525C34.8917 35.2208 36.8667 33.2458 39.1708 33.2458H107.638C109.942 33.2458 111.917 35.2208 111.917 37.525V130.35C111.588 132.983 109.942 134.629 107.638 134.629Z" fill="#FEDDC5"/>
<path d="M107.308 135.617H39.1708C36.5375 135.617 34.2333 133.313 34.2333 130.679V37.525C34.2333 34.8917 36.5375 32.5875 39.1708 32.5875H107.638C110.271 32.5875 112.575 34.8917 112.575 37.525V130.35C112.575 133.313 110.271 135.617 107.308 135.617ZM39.1708 34.2334C37.1958 34.2334 35.8792 35.8792 35.8792 37.525V130.35C35.8792 132.325 37.525 133.642 39.1708 133.642H107.638C109.613 133.642 110.929 131.996 110.929 130.35V37.525C110.929 35.55 109.283 34.2334 107.638 34.2334H39.1708Z" fill="#0D3B5D"/>
<path d="M101.383 107.637H58.2625C57.275 107.637 56.6167 106.979 56.6167 105.992C56.6167 105.004 57.275 104.346 58.2625 104.346H101.383C102.371 104.346 103.029 105.004 103.029 105.992C103.029 106.979 102.371 107.637 101.383 107.637Z" fill="#0C3B5D"/>
<path d="M52.0083 111.588H43.7792C42.7917 111.588 42.1333 110.929 42.1333 109.942V101.713C42.1333 100.725 42.7917 100.067 43.7792 100.067H52.0083C52.9958 100.067 53.6542 100.725 53.6542 101.713V109.942C53.9833 110.929 52.9958 111.588 52.0083 111.588Z" fill="#0C3B5D"/>
<path d="M101.383 90.85H58.2625C57.275 90.85 56.6167 90.1916 56.6167 89.2041C56.6167 88.2166 57.275 87.5583 58.2625 87.5583H101.383C102.371 87.5583 103.029 88.2166 103.029 89.2041C103.029 90.1916 102.371 90.85 101.383 90.85Z" fill="#0C3B5D"/>
<path d="M52.0083 94.8H43.7792C42.7917 94.8 42.1333 94.1417 42.1333 93.1542V84.925C42.1333 83.9375 42.7917 83.2792 43.7792 83.2792H52.0083C52.9958 83.2792 53.6542 83.9375 53.6542 84.925V93.1542C53.9833 94.1417 52.9958 94.8 52.0083 94.8Z" fill="#0C3B5D"/>
<path d="M47.0708 92.825C46.7417 92.825 46.0833 92.4959 46.0833 92.1667L44.4375 89.8625C44.1083 89.5334 44.1083 88.875 44.7667 88.5459C45.0958 88.2167 45.7542 88.2167 46.0833 88.875L47.4 90.5209L51.0208 85.2542C51.35 84.925 52.0083 84.5959 52.3375 84.925C52.6667 85.2542 52.9958 85.9125 52.6667 86.2417L48.0583 92.1667C47.7292 92.4959 47.4 92.825 47.0708 92.825Z" fill="#FEDDC5"/>
<path d="M47.0708 109.283C46.7417 109.283 46.0833 108.954 46.0833 108.625L44.4375 106.321C44.1083 105.992 44.1083 105.333 44.7667 105.004C45.0958 104.675 45.7542 104.675 46.0833 105.333L47.4 106.979L51.0208 101.713C51.35 101.383 52.0083 101.054 52.3375 101.383C52.6667 101.713 52.9958 102.371 52.6667 102.7L48.0583 108.625C47.7292 108.954 47.4 109.283 47.0708 109.283Z" fill="#FEDDC5"/>
<path d="M101.383 77.0251H42.1333C41.1458 77.0251 40.4875 76.3667 40.4875 75.3792C40.4875 74.3917 41.1458 73.7334 42.1333 73.7334H101.383C102.371 73.7334 103.029 74.3917 103.029 75.3792C103.029 76.0376 102.371 77.0251 101.383 77.0251Z" fill="#0C3B5D"/>
<path d="M101.383 124.425H58.2625C57.275 124.425 56.6167 123.767 56.6167 122.779C56.6167 121.792 57.275 121.133 58.2625 121.133H101.383C102.371 121.133 103.029 121.792 103.029 122.779C103.029 123.767 102.371 124.425 101.383 124.425Z" fill="#0C3B5D"/>
<path d="M52.0083 128.375H43.7792C42.7917 128.375 42.1333 127.717 42.1333 126.729V118.5C42.1333 117.513 42.7917 116.854 43.7792 116.854H52.0083C52.9958 116.854 53.6542 117.513 53.6542 118.5V126.729C53.9833 127.717 52.9958 128.375 52.0083 128.375Z" fill="#0C3B5D"/>
<path d="M134.629 122.45L119.817 89.5334C119.488 89.2042 119.487 88.5459 119.487 88.2167V75.7084C119.487 75.3792 119.817 75.3792 119.817 75.3792H121.792C122.121 75.3792 122.779 75.0501 122.779 74.3917V70.7709C122.779 70.4417 122.45 69.7834 121.792 69.7834H99.7375C99.4083 69.7834 98.75 70.1126 98.75 70.7709V74.3917C98.75 74.7209 99.0792 75.3792 99.7375 75.3792H101.383C101.712 75.3792 101.712 75.7084 101.712 75.7084V87.8876C101.712 88.2167 101.712 88.875 101.383 89.2042L86.5708 122.121C85.5833 124.425 84.925 127.058 84.925 129.692C84.925 132.325 86.9 134.3 89.5333 134.3H110.271H131.667C134.3 134.3 136.275 132.325 136.275 129.692C136.275 127.388 135.617 124.754 134.629 122.45Z" fill="#FEDDC5"/>
<path d="M132.654 123.438L125.412 107.308C125.083 106.979 124.754 106.65 124.425 106.65C124.096 106.65 123.767 106.65 123.437 106.979C122.45 107.967 121.133 108.625 119.487 108.625C118.171 108.625 116.854 107.967 115.867 106.979C115.537 106.65 114.879 106.65 114.221 106.979C113.233 107.967 111.917 108.625 110.6 108.625C109.283 108.625 107.967 107.967 106.979 106.979C106.65 106.65 105.992 106.65 105.333 106.979C104.346 107.967 103.029 108.625 101.712 108.625C100.067 108.625 98.75 107.967 97.7625 106.979C97.4333 106.65 97.1042 106.65 96.775 106.65C96.4458 106.65 95.7875 106.979 95.7875 107.308L88.875 123.438C87.8875 125.413 87.5583 127.717 87.5583 130.021C87.5583 131.338 88.5458 132.325 89.8625 132.325H131.667C132.983 132.325 133.971 131.338 133.971 130.021C133.971 127.717 133.312 125.413 132.654 123.438Z" fill="#0C3B5D"/>
<path d="M105.662 128.704C108.389 128.704 110.6 126.494 110.6 123.767C110.6 121.04 108.389 118.829 105.662 118.829C102.936 118.829 100.725 121.04 100.725 123.767C100.725 126.494 102.936 128.704 105.662 128.704Z" fill="#306382"/>
<path d="M114.221 118.5C116.039 118.5 117.513 117.026 117.513 115.208C117.513 113.39 116.039 111.917 114.221 111.917C112.403 111.917 110.929 113.39 110.929 115.208C110.929 117.026 112.403 118.5 114.221 118.5Z" fill="#306382"/>
<path d="M131.667 135.617H89.8625C86.9 135.617 84.2667 132.983 84.2667 130.021C84.2667 127.387 84.925 124.754 85.9125 122.121L100.725 89.2041C100.725 88.8749 101.054 88.5458 101.054 88.2166V76.3666H99.7375C98.75 76.3666 98.0917 75.7083 98.0917 74.7208V71.0999C98.0917 70.1124 98.75 69.4541 99.7375 69.4541H121.792C122.779 69.4541 123.438 70.1124 123.438 71.0999V74.7208C123.438 75.7083 122.779 76.3666 121.792 76.3666H120.475V88.2166C120.475 88.5458 120.475 88.8749 120.804 89.2041L135.617 122.121C136.604 124.754 137.263 127.387 137.263 130.021C137.263 132.983 134.629 135.617 131.667 135.617ZM99.7375 70.7708V74.3916H101.383C102.042 74.3916 102.7 75.0499 102.7 75.7083V87.8874C102.7 88.5458 102.7 89.2041 102.371 89.5333L87.5583 122.45C86.5708 124.754 85.9125 127.058 85.9125 129.692C85.9125 131.996 87.5583 133.642 89.8625 133.642H131.667C133.971 133.642 135.617 131.996 135.617 129.692C135.617 127.058 134.958 124.754 133.971 122.45L119.158 89.5333C118.829 88.8749 118.829 88.5458 118.829 87.8874V75.7083C118.829 75.0499 119.488 74.3916 120.146 74.3916H121.792V70.7708H99.7375Z" fill="#0D3B5D"/>
<path d="M47.0708 126.4C46.7417 126.4 46.0833 126.071 46.0833 125.742L44.4375 123.437C44.1083 123.108 44.1083 122.45 44.7667 122.121C45.0958 121.792 45.7542 121.792 46.0833 122.45L47.4 124.096L51.0208 118.829C51.35 118.5 52.0083 118.171 52.3375 118.5C52.6667 118.829 52.9958 119.487 52.6667 119.817L48.7167 125.412C47.7292 126.071 47.4 126.4 47.0708 126.4Z" fill="#FEDDC5"/>
</svg>
