<svg width="21" height="20" viewBox="0 0 21 20" fill="none" xmlns="http://www.w3.org/2000/svg">
<path d="M9.54295 1.43191C9.82976 0.485146 11.1702 0.485146 11.457 1.43191L12.9791 6.45605C13.1068 6.87773 13.4955 7.16612 13.9361 7.16612H19.0025C19.9542 7.16612 20.3679 8.36993 19.6172 8.9549L15.4006 12.2407C15.0744 12.4949 14.9383 12.9236 15.0582 13.3194L16.64 18.5407C16.9228 19.4744 15.8379 20.2191 15.0683 19.6194L11.1147 16.5385C10.7533 16.2569 10.2467 16.2569 9.88533 16.5385L5.93175 19.6194C5.16214 20.2191 4.07715 19.4744 4.36003 18.5407L5.94176 13.3194C6.06166 12.9236 5.92557 12.4949 5.59938 12.2407L1.38282 8.9549C0.632143 8.36993 1.0458 7.16612 1.99749 7.16612H7.06389C7.5045 7.16612 7.8932 6.87773 8.02094 6.45605L9.54295 1.43191Z" fill="#FFC42D"/>
</svg>
