<svg width="60" height="60" viewBox="0 0 60 60" fill="none" xmlns="http://www.w3.org/2000/svg">
<path d="M42.2505 17.3556L41.5998 18.5328L42.8621 18.0681C44.1225 17.6041 45.485 17.3503 46.908 17.3503C53.3755 17.3503 58.6184 22.5931 58.6184 29.0607C58.6184 35.5282 53.3755 40.771 46.908 40.771H15.91C7.88623 40.771 1.3816 34.2664 1.3816 26.2427C1.3816 18.2189 7.88623 11.7143 15.91 11.7143C17.8382 11.7143 19.6773 12.0906 21.3599 12.7721L22.0592 13.0553L22.0489 12.3009C22.0486 12.2806 22.0483 12.2625 22.048 12.2455C22.0475 12.2126 22.047 12.184 22.047 12.1526C22.047 6.20399 26.8694 1.38159 32.818 1.38159C38.7666 1.38159 43.589 6.20399 43.589 12.1526C43.589 14.0406 43.103 15.8135 42.2505 17.3556Z" fill="#FFF4EB" stroke="black" stroke-width="1.00196"/>
<path d="M50.6654 35.6361H19.6673C11.3669 35.6361 4.63796 28.9072 4.63796 20.6068C4.63796 18.7417 4.97859 16.9565 5.5996 15.3086C2.69448 18.0491 0.880623 21.9338 0.880623 26.2428C0.880623 34.5432 7.60955 41.2722 15.91 41.2722H46.908C52.3675 41.2722 56.9898 37.6891 58.5527 32.7463C56.4249 34.5486 53.6723 35.6361 50.6654 35.6361Z" fill="#FEDDC5"/>
<mask id="path-3-inside-1" fill="white">
<path d="M46.908 15.9687C46.0138 15.9687 45.1301 16.0582 44.2653 16.2356C44.7296 14.9311 44.9706 13.5471 44.9706 12.1526C44.9706 5.45166 39.519 0 32.818 0C26.4815 0 21.262 4.87515 20.713 11.0715C19.165 10.5808 17.5545 10.3327 15.91 10.3327C7.13718 10.3327 0 17.4699 0 26.2427C0 35.0155 7.13718 42.1526 15.91 42.1526H37.0807C37.567 42.1526 37.9613 41.7584 37.9613 41.272C37.9613 40.7857 37.567 40.3914 37.0807 40.3914H15.91C8.10834 40.3914 1.76125 34.0443 1.76125 26.2427C1.76125 18.441 8.10834 12.0939 15.91 12.0939C17.744 12.0939 19.5297 12.4405 21.2173 13.1239C21.4907 13.2346 21.8014 13.2012 22.0449 13.0347C22.2884 12.8683 22.4324 12.591 22.4285 12.296L22.4277 12.2445C22.4272 12.2138 22.4266 12.1833 22.4266 12.1526C22.4266 6.42282 27.0882 1.76125 32.818 1.76125C38.5478 1.76125 43.2094 6.42282 43.2094 12.1526C43.2094 13.9086 42.763 15.6441 41.9184 17.172C41.7404 17.4939 41.7813 17.8924 42.0208 18.1717C42.2603 18.4508 42.648 18.5516 42.9933 18.4245C44.245 17.9637 45.5621 17.7299 46.908 17.7299C53.1558 17.7299 58.2387 22.8129 58.2387 29.0607C58.2387 35.3084 53.1558 40.3914 46.908 40.3914H41.3077C40.8214 40.3914 40.4271 40.7857 40.4271 41.272C40.4271 41.7584 40.8214 42.1526 41.3077 42.1526H46.908C54.1269 42.1526 60 36.2796 60 29.0607C60 21.8418 54.1269 15.9687 46.908 15.9687Z"/>
</mask>
<path d="M46.908 15.9687C46.0138 15.9687 45.1301 16.0582 44.2653 16.2356C44.7296 14.9311 44.9706 13.5471 44.9706 12.1526C44.9706 5.45166 39.519 0 32.818 0C26.4815 0 21.262 4.87515 20.713 11.0715C19.165 10.5808 17.5545 10.3327 15.91 10.3327C7.13718 10.3327 0 17.4699 0 26.2427C0 35.0155 7.13718 42.1526 15.91 42.1526H37.0807C37.567 42.1526 37.9613 41.7584 37.9613 41.272C37.9613 40.7857 37.567 40.3914 37.0807 40.3914H15.91C8.10834 40.3914 1.76125 34.0443 1.76125 26.2427C1.76125 18.441 8.10834 12.0939 15.91 12.0939C17.744 12.0939 19.5297 12.4405 21.2173 13.1239C21.4907 13.2346 21.8014 13.2012 22.0449 13.0347C22.2884 12.8683 22.4324 12.591 22.4285 12.296L22.4277 12.2445C22.4272 12.2138 22.4266 12.1833 22.4266 12.1526C22.4266 6.42282 27.0882 1.76125 32.818 1.76125C38.5478 1.76125 43.2094 6.42282 43.2094 12.1526C43.2094 13.9086 42.763 15.6441 41.9184 17.172C41.7404 17.4939 41.7813 17.8924 42.0208 18.1717C42.2603 18.4508 42.648 18.5516 42.9933 18.4245C44.245 17.9637 45.5621 17.7299 46.908 17.7299C53.1558 17.7299 58.2387 22.8129 58.2387 29.0607C58.2387 35.3084 53.1558 40.3914 46.908 40.3914H41.3077C40.8214 40.3914 40.4271 40.7857 40.4271 41.272C40.4271 41.7584 40.8214 42.1526 41.3077 42.1526H46.908C54.1269 42.1526 60 36.2796 60 29.0607C60 21.8418 54.1269 15.9687 46.908 15.9687Z" fill="#0C3B5D"/>
<path d="M44.2653 16.2356L40.4969 14.8944L38.1174 21.5802L45.0692 20.154L44.2653 16.2356ZM20.713 11.0715L19.5044 14.8845L24.2574 16.3911L24.6974 11.4244L20.713 11.0715ZM21.2173 13.1239L22.7191 9.41652L22.7186 9.41634L21.2173 13.1239ZM22.0449 13.0347L19.7884 9.73193L19.7873 9.73267L22.0449 13.0347ZM22.4285 12.296L26.4282 12.2435L26.428 12.2322L22.4285 12.296ZM22.4277 12.2445L18.4281 12.3058L18.4282 12.3082L22.4277 12.2445ZM41.9184 17.172L45.419 19.1074L45.4191 19.1072L41.9184 17.172ZM42.0208 18.1717L38.9848 20.7761L38.9854 20.7767L42.0208 18.1717ZM42.9933 18.4245L41.6116 14.6707L41.6111 14.6709L42.9933 18.4245ZM46.908 11.9687C45.7462 11.9687 44.5932 12.085 43.4614 12.3172L45.0692 20.154C45.667 20.0313 46.2813 19.9687 46.908 19.9687V11.9687ZM48.0338 17.5768C48.6505 15.844 48.9706 14.0065 48.9706 12.1526H40.9706C40.9706 13.0876 40.8087 14.0181 40.4969 14.8944L48.0338 17.5768ZM48.9706 12.1526C48.9706 3.24253 41.7281 -4 32.818 -4V4C37.3098 4 40.9706 7.6608 40.9706 12.1526H48.9706ZM32.818 -4C24.389 -4 17.4586 2.47803 16.7286 10.7185L24.6974 11.4244C25.0653 7.27226 28.574 4 32.818 4V-4ZM21.9217 7.25844C19.9786 6.64254 17.9603 6.33268 15.91 6.33268V14.3327C17.1488 14.3327 18.3514 14.519 19.5044 14.8845L21.9217 7.25844ZM15.91 6.33268C4.92804 6.33268 -4 15.2607 -4 26.2427H4C4 19.679 9.34632 14.3327 15.91 14.3327V6.33268ZM-4 26.2427C-4 37.2246 4.92804 46.1526 15.91 46.1526V38.1526C9.34632 38.1526 4 32.8063 4 26.2427H-4ZM15.91 46.1526H37.0807V38.1526H15.91V46.1526ZM37.0807 46.1526C39.7762 46.1526 41.9613 43.9675 41.9613 41.272H33.9613C33.9613 39.5492 35.3579 38.1526 37.0807 38.1526V46.1526ZM41.9613 41.272C41.9613 38.5765 39.7762 36.3914 37.0807 36.3914V44.3914C35.3579 44.3914 33.9613 42.9948 33.9613 41.272H41.9613ZM37.0807 36.3914H15.91V44.3914H37.0807V36.3914ZM15.91 36.3914C10.3175 36.3914 5.76125 31.8352 5.76125 26.2427H-2.23875C-2.23875 36.2534 5.8992 44.3914 15.91 44.3914V36.3914ZM5.76125 26.2427C5.76125 20.6502 10.3175 16.0939 15.91 16.0939V8.09393C5.8992 8.09393 -2.23875 16.2319 -2.23875 26.2427H5.76125ZM15.91 16.0939C17.2331 16.0939 18.5088 16.3426 19.716 16.8315L22.7186 9.41634C20.5506 8.53846 18.2549 8.09393 15.91 8.09393V16.0939ZM19.7156 16.8313C21.2307 17.445 22.9527 17.2596 24.3025 16.3367L19.7873 9.73267C20.6501 9.14279 21.7507 9.02426 22.7191 9.41652L19.7156 16.8313ZM24.3014 16.3374C25.6524 15.4144 26.4496 13.8769 26.4281 12.2435L18.4288 12.3486C18.4151 11.305 18.9245 10.3222 19.7884 9.73193L24.3014 16.3374ZM26.428 12.2322L26.4272 12.1807L18.4282 12.3082L18.429 12.3598L26.428 12.2322ZM26.4272 12.1832C26.4271 12.1781 26.427 12.1733 26.427 12.1692C26.4269 12.1647 26.4269 12.1618 26.4268 12.1582C26.4267 12.1515 26.4266 12.1476 26.4266 12.1448C26.4265 12.139 26.4266 12.1432 26.4266 12.1526H18.4266C18.4266 12.2229 18.428 12.2971 18.4281 12.3058L26.4272 12.1832ZM26.4266 12.1526C26.4266 8.63196 29.2973 5.76125 32.818 5.76125V-2.23875C24.879 -2.23875 18.4266 4.21368 18.4266 12.1526H26.4266ZM32.818 5.76125C36.3387 5.76125 39.2094 8.63196 39.2094 12.1526H47.2094C47.2094 4.21368 40.757 -2.23875 32.818 -2.23875V5.76125ZM39.2094 12.1526C39.2094 13.2358 38.9328 14.305 38.4177 15.2368L45.4191 19.1072C46.5932 16.9833 47.2094 14.5814 47.2094 12.1526H39.2094ZM38.4178 15.2366C37.4313 17.0209 37.6581 19.2295 38.9848 20.7761L45.0567 15.5672C45.9044 16.5553 46.0495 17.9669 45.419 19.1074L38.4178 15.2366ZM38.9854 20.7767C40.313 22.3237 42.4623 22.8826 44.3756 22.1781L41.6111 14.6709C42.8337 14.2207 44.2076 14.5778 45.0562 15.5666L38.9854 20.7767ZM44.3751 22.1782C45.1805 21.8818 46.0295 21.7299 46.908 21.7299V13.7299C45.0946 13.7299 43.3095 14.0457 41.6116 14.6707L44.3751 22.1782ZM46.908 21.7299C50.9466 21.7299 54.2387 25.0221 54.2387 29.0607H62.2387C62.2387 20.6038 55.3649 13.7299 46.908 13.7299V21.7299ZM54.2387 29.0607C54.2387 33.0993 50.9466 36.3914 46.908 36.3914V44.3914C55.3649 44.3914 62.2387 37.5176 62.2387 29.0607H54.2387ZM46.908 36.3914H41.3077V44.3914H46.908V36.3914ZM41.3077 36.3914C38.6122 36.3914 36.4271 38.5765 36.4271 41.272H44.4271C44.4271 42.9948 43.0305 44.3914 41.3077 44.3914V36.3914ZM36.4271 41.272C36.4271 43.9675 38.6122 46.1526 41.3077 46.1526V38.1526C43.0305 38.1526 44.4271 39.5492 44.4271 41.272H36.4271ZM41.3077 46.1526H46.908V38.1526H41.3077V46.1526ZM46.908 46.1526C56.3361 46.1526 64 38.4887 64 29.0607H56C56 34.0704 51.9178 38.1526 46.908 38.1526V46.1526ZM64 29.0607C64 19.6326 56.3361 11.9687 46.908 11.9687V19.9687C51.9178 19.9687 56 24.0509 56 29.0607H64Z" fill="black" mask="url(#path-3-inside-1)"/>
<path d="M18.728 45.0881C18.2416 45.0881 17.8474 45.4824 17.8474 45.9688V46.9081C17.8474 47.3944 18.2416 47.7887 18.728 47.7887C19.2143 47.7887 19.6086 47.3944 19.6086 46.9081V45.9688C19.6086 45.4824 19.2143 45.0881 18.728 45.0881Z" fill="#0E3B5D"/>
<path d="M18.728 50.5361C18.2416 50.5361 17.8474 50.9304 17.8474 51.4168V53.6712C17.8474 54.1575 18.2416 54.5518 18.728 54.5518C19.2143 54.5518 19.6086 54.1575 19.6086 53.6712V51.4168C19.6086 50.9304 19.2143 50.5361 18.728 50.5361Z" fill="#0E3B5D"/>
<path d="M18.728 57.2993C18.2416 57.2993 17.8474 57.6936 17.8474 58.1799V59.1193C17.8474 59.6056 18.2416 59.9999 18.728 59.9999C19.2143 59.9999 19.6086 59.6056 19.6086 59.1193V58.1799C19.6086 57.6936 19.2143 57.2993 18.728 57.2993Z" fill="#0E3B5D"/>
<path d="M26.2988 45.0881C25.8125 45.0881 25.4182 45.4824 25.4182 45.9688V46.9081C25.4182 47.3944 25.8125 47.7887 26.2988 47.7887C26.7851 47.7887 27.1794 47.3944 27.1794 46.9081V45.9688C27.1794 45.4824 26.7851 45.0881 26.2988 45.0881Z" fill="#0E3B5D"/>
<path d="M26.2988 50.5361C25.8125 50.5361 25.4182 50.9304 25.4182 51.4168V53.6712C25.4182 54.1575 25.8125 54.5518 26.2988 54.5518C26.7851 54.5518 27.1794 54.1575 27.1794 53.6712V51.4168C27.1794 50.9304 26.7851 50.5361 26.2988 50.5361Z" fill="#0E3B5D"/>
<path d="M26.2988 57.2993C25.8125 57.2993 25.4182 57.6936 25.4182 58.1799V59.1193C25.4182 59.6056 25.8125 59.9999 26.2988 59.9999C26.7851 59.9999 27.1794 59.6056 27.1794 59.1193V58.1799C27.1794 57.6936 26.7851 57.2993 26.2988 57.2993Z" fill="#0E3B5D"/>
<path d="M33.7573 45.0881C33.271 45.0881 32.8767 45.4824 32.8767 45.9688V46.9081C32.8767 47.3944 33.271 47.7887 33.7573 47.7887C34.2437 47.7887 34.6379 47.3944 34.6379 46.9081V45.9688C34.6379 45.4824 34.2437 45.0881 33.7573 45.0881Z" fill="#0E3B5D"/>
<path d="M33.7573 50.5361C33.271 50.5361 32.8767 50.9304 32.8767 51.4168V53.6712C32.8767 54.1575 33.271 54.5518 33.7573 54.5518C34.2437 54.5518 34.6379 54.1575 34.6379 53.6712V51.4168C34.6379 50.9304 34.2437 50.5361 33.7573 50.5361Z" fill="#0E3B5D"/>
<path d="M33.7573 57.2993C33.271 57.2993 32.8767 57.6936 32.8767 58.1799V59.1193C32.8767 59.6056 33.271 59.9999 33.7573 59.9999C34.2437 59.9999 34.6379 59.6056 34.6379 59.1193V58.1799C34.6379 57.6936 34.2437 57.2993 33.7573 57.2993Z" fill="#0E3B5D"/>
<path d="M41.272 45.0881C40.7857 45.0881 40.3914 45.4824 40.3914 45.9688V46.9081C40.3914 47.3944 40.7857 47.7887 41.272 47.7887C41.7583 47.7887 42.1526 47.3944 42.1526 46.9081V45.9688C42.1526 45.4824 41.7583 45.0881 41.272 45.0881Z" fill="#0E3B5D"/>
<path d="M41.272 50.5361C40.7857 50.5361 40.3914 50.9304 40.3914 51.4168V53.6712C40.3914 54.1575 40.7857 54.5518 41.272 54.5518C41.7583 54.5518 42.1526 54.1575 42.1526 53.6712V51.4168C42.1526 50.9304 41.7583 50.5361 41.272 50.5361Z" fill="#0E3B5D"/>
<path d="M41.272 57.2993C40.7857 57.2993 40.3914 57.6936 40.3914 58.1799V59.1193C40.3914 59.6056 40.7857 59.9999 41.272 59.9999C41.7583 59.9999 42.1526 59.6056 42.1526 59.1193V58.1799C42.1526 57.6936 41.7583 57.2993 41.272 57.2993Z" fill="#0E3B5D"/>
</svg>
