<svg width="12" height="13" viewBox="0 0 12 13" fill="none" xmlns="http://www.w3.org/2000/svg">
<path d="M11.3377 0H0.662333C0.486672 0 0.318205 0.0755964 0.193993 0.210159C0.0697813 0.344722 0 0.527228 0 0.717528V12.2827C4.41955e-05 12.4729 0.0698451 12.6554 0.194052 12.7899C0.318259 12.9244 0.486701 13 0.662333 13H6.4095V7.96575H4.84567V6.00383H6.4095V4.55686C6.4095 2.87769 7.35617 1.96354 8.73883 1.96354C9.40117 1.96354 9.97033 2.01681 10.1363 2.04082V3.79564L9.17733 3.79618C8.42533 3.79618 8.27983 4.18329 8.27983 4.75132V6.00401H10.0732L9.83967 7.96593H8.27983V13H11.3378C11.5135 13 11.6819 12.9243 11.8061 12.7898C11.9302 12.6552 12 12.4727 12 12.2825V0.717528C12 0.527228 11.9302 0.344722 11.806 0.210159C11.6818 0.0755964 11.5133 0 11.3377 0Z" fill="#042A4F"/>
</svg>
