<svg width="15" height="15" viewBox="0 0 15 15" fill="none" xmlns="http://www.w3.org/2000/svg">
<path d="M7.5 0C3.35 0 0 3.35 0 7.5C0 10.7 2 13.4 4.75 14.5C4.7 13.9 4.65 13 4.8 12.35C4.95 11.75 5.7 8.6 5.7 8.6C5.7 8.6 5.5 8.15 5.5 7.5C5.5 6.45 6.1 5.7 6.85 5.7C7.5 5.7 7.8 6.2 7.8 6.75C7.8 7.4 7.4 8.35 7.2 9.25C7 10 7.55 10.6 8.3 10.6C9.65 10.6 10.65 9.2 10.65 7.15C10.65 5.35 9.35 4.1 7.5 4.1C5.35 4.1 4.1 5.7 4.1 7.35C4.1 8 4.35 8.7 4.65 9.05C4.7 9.1 4.7 9.2 4.7 9.25C4.65 9.5 4.5 10 4.5 10.1C4.45 10.25 4.4 10.25 4.25 10.2C3.3 9.75 2.75 8.4 2.75 7.3C2.75 4.95 4.45 2.75 7.7 2.75C10.3 2.75 12.3 4.6 12.3 7.1C12.3 9.7 10.65 11.75 8.4 11.75C7.65 11.75 6.95 11.35 6.7 10.9C6.7 10.9 6.3 12.35 6.25 12.7C6.1 13.35 5.6 14.15 5.3 14.65C6 14.9 6.75 15 7.5 15C11.65 15 15 11.65 15 7.5C15 3.35 11.65 0 7.5 0Z" fill="#10385E"/>
</svg>
