<svg width="20" height="13" viewBox="0 0 20 13" fill="none" xmlns="http://www.w3.org/2000/svg">
<path d="M19.5826 2.03073C19.4687 1.6375 19.2455 1.27889 18.9353 0.990807C18.625 0.702719 18.2386 0.495253 17.8147 0.389172C16.2545 7.89667e-08 10 0 10 0C10 0 3.74554 -7.89667e-08 2.18527 0.387102C1.76121 0.492839 1.37461 0.70019 1.0643 0.988331C0.753989 1.27647 0.530891 1.63526 0.417411 2.02866C-8.51495e-08 3.47771 0 6.5 0 6.5C0 6.5 -8.51495e-08 9.52229 0.417411 10.9693C0.647321 11.7683 1.32589 12.3976 2.18527 12.6108C3.74554 13 10 13 10 13C10 13 16.2545 13 17.8147 12.6108C18.6763 12.3976 19.3527 11.7683 19.5826 10.9693C20 9.52229 20 6.5 20 6.5C20 6.5 20 3.47771 19.5826 2.03073ZM8.01339 9.27389V3.72611L13.192 6.4793L8.01339 9.27389Z" fill="#10385E"/>
</svg>
